SplineFontDB: 3.0
FontName: Albane
FullName: Albane
FamilyName: Albane
Weight: Medium
Copyright: Created by Guillaume Ayoub with FontForge 2.0 (http://fontforge.sf.net)
UComments: "2014-6-9: Created."
Version: 001.000
ItalicAngle: 0
UnderlinePosition: -100
UnderlineWidth: 50
Ascent: 720
Descent: 280
InvalidEm: 0
LayerCount: 2
Layer: 0 0 "Arri+AOgA-re" 1
Layer: 1 0 "Avant" 0
XUID: [1021 779 1303216649 11122949]
FSType: 0
OS2Version: 0
OS2_WeightWidthSlopeOnly: 0
OS2_UseTypoMetrics: 1
CreationTime: 1402326609
ModificationTime: 1431925862
OS2TypoAscent: 0
OS2TypoAOffset: 1
OS2TypoDescent: 0
OS2TypoDOffset: 1
OS2TypoLinegap: 90
OS2WinAscent: 0
OS2WinAOffset: 1
OS2WinDescent: 0
OS2WinDOffset: 1
HheadAscent: 0
HheadAOffset: 1
HheadDescent: 0
HheadDOffset: 1
OS2CapHeight: 0
OS2XHeight: 0
OS2Vendor: 'PfEd'
MarkAttachClasses: 1
DEI: 91125
Encoding: UnicodeBmp
UnicodeInterp: none
NameList: Adobe Glyph List
DisplaySize: -96
AntiAlias: 1
FitToEm: 1
ExtremaBound: 10
WinInfo: 0 9 8
BeginPrivate: 1
BlueValues 49 [-270 -260 -10 0 420 430 480 490 650 660 695 705]
EndPrivate
BeginChars: 65536 220

StartChar: n
Encoding: 110 110 0
Width: 536
VWidth: 0
Flags: W
HStem: -4 30<191.917 237.182 459.917 505.182> 364 28<42 88.5454> 365 65<250.538 352.087>
VStem: 100 86<33.9572 325.188 351 357.543> 368 86<33.9572 351.09>
LayerCount: 2
Back
Fore
SplineSet
186 351 m 1xb8
 238 402 260 430 342 430 c 3
 412 430 454 373 454 286 c 10
 454 52 l 18
 454 32 496 32 502 26 c 1
 505 23 506 22 506 -4 c 1
 482 -1 454 0 420 0 c 27
 374 0 333 -1 303 -4 c 1
 303 9 305 16 309 20 c 1
 322 33 368 28 368 52 c 10
 368 286 l 18
 368 319 353 365 316 365 c 3xb8
 261 365 244 350 186 312 c 1
 186 52 l 2
 186 32 228 32 234 26 c 0
 237 23 238 22 238 -4 c 1
 214 -1 193 0 152 0 c 3
 111 0 65 -1 35 -4 c 1
 35 9 38 16 42 20 c 0
 55 33 100 28 100 52 c 2
 100 315 l 2
 100 355 77 364 42 364 c 9
 42 392 l 17xd8
 73 392 157 422 192 451 c 1
 188 432 186 410 186 365 c 2
 186 351 l 1xb8
EndSplineSet
Validated: 1
EndChar

StartChar: dotlessi
Encoding: 305 305 1
Width: 268
VWidth: 0
Flags: W
HStem: -4 30<191.917 237.182> 359 28<42 88.6137>
VStem: 100 86<33.9572 352.776>
LayerCount: 2
Back
Fore
SplineSet
100 309 m 18
 100 351 77 359 42 359 c 9
 42 387 l 17
 73 387 157 417 192 446 c 1
 188 427 186 404 186 360 c 10
 186 52 l 18
 186 32 228 32 234 26 c 1
 237 23 238 22 238 -4 c 1
 214 -1 185 0 152 0 c 27
 106 0 65 -1 35 -4 c 1
 35 9 38 16 42 20 c 1
 55 33 100 28 100 52 c 10
 100 309 l 18
EndSplineSet
Validated: 1
EndChar

StartChar: uni0237
Encoding: 567 567 3
Width: 276
VWidth: 0
Flags: W
HStem: 358 38<52 108.554>
VStem: 110 86<-64.152 351>
LayerCount: 2
Back
Fore
SplineSet
196 46 m 18
 196 -116 45 -266 45 -266 c 17
 40 -272 29 -271 19 -260 c 9
 -16 -221 l 21
 -23 -212 -22 -203 -10 -195 c 5
 42 -160 114 -109 114 -61 c 3
 114 -35 110 94 110 189 c 10
 110 351 l 25
 52 358 l 25
 52 396 l 17
 108 396 162 410 202 455 c 1
 198 436 196 416 196 370 c 9
 196 46 l 18
EndSplineSet
Validated: 1
EndChar

StartChar: period
Encoding: 46 46 4
Width: 260
VWidth: 0
Flags: W
HStem: -13 112<81.538 168.462>
VStem: 70 110<-1.89597 87.896>
LayerCount: 2
Back
Fore
SplineSet
125 99 m 27
 156 99 180 74 180 43 c 27
 180 12 156 -13 125 -13 c 27
 94 -13 70 12 70 43 c 27
 70 74 94 99 125 99 c 27
EndSplineSet
Validated: 1
EndChar

StartChar: h
Encoding: 104 104 6
Width: 541
VWidth: 0
Flags: W
HStem: -4 30<191.917 237.182 464.917 510.182> 365 65<252.534 357.087> 614 28<42 88.6137> 681 20G<174.5 190>
VStem: 100 86<33.9572 326.145 352 608.469> 373 86<33.9572 349.298>
LayerCount: 2
Back
Fore
SplineSet
100 565 m 18
 100 608 77 614 42 614 c 9
 42 642 l 17
 73 642 157 672 192 701 c 1
 188 682 186 659 186 615 c 2
 186 352 l 1
 237 403 265 430 347 430 c 3
 417 430 459 374 459 287 c 10
 459 52 l 18
 459 32 501 32 507 26 c 1
 510 23 511 22 511 -4 c 1
 487 -1 459 0 425 0 c 27
 379 0 338 -1 308 -4 c 1
 308 9 311 16 315 20 c 1
 328 33 373 28 373 52 c 10
 373 287 l 18
 373 320 358 365 321 365 c 3
 266 365 243 351 186 313 c 9
 186 52 l 18
 186 32 228 32 234 26 c 1
 237 23 238 22 238 -4 c 1
 214 -1 186 0 152 0 c 27
 106 0 65 -1 35 -4 c 1
 35 9 37 16 41 20 c 1
 54 33 100 28 100 52 c 10
 100 565 l 18
EndSplineSet
Validated: 1
EndChar

StartChar: m
Encoding: 109 109 7
Width: 793
VWidth: 0
Flags: W
HStem: -4 30<191.917 237.182 453.917 499.182 716.917 762.182> 364 28<42 88.5454> 365 65<247.769 347.391 514.495 609.087>
VStem: 100 86<33.9572 326.689 351 357.543> 363 85<33.9572 327.106> 625 86<33.9572 351.09>
CounterMasks: 1 1c
LayerCount: 2
Back
Fore
SplineSet
100 315 m 2xbc
 100 355 77 364 42 364 c 9
 42 392 l 17xdc
 73 392 157 422 192 451 c 1
 188 432 186 410 186 365 c 2
 186 351 l 1
 237 402 255 430 337 430 c 3
 393 430 429 406 443 346 c 1
 492 394 521 430 599 430 c 3
 669 430 711 373 711 286 c 2
 711 52 l 2
 711 32 753 32 759 26 c 0
 762 23 763 22 763 -4 c 1
 739 -1 718 0 677 0 c 3
 636 0 590 -1 560 -4 c 1
 560 9 563 16 567 20 c 0
 580 33 625 28 625 52 c 2
 625 286 l 2
 625 319 610 365 573 365 c 3
 518 365 505 351 448 313 c 9
 448 52 l 2
 448 32 490 32 496 26 c 0
 499 23 500 22 500 -4 c 1
 476 -1 456 0 415 0 c 3
 374 0 328 -1 298 -4 c 1
 298 9 300 16 304 20 c 0
 317 33 363 28 363 52 c 2
 363 286 l 2
 363 319 348 365 311 365 c 3
 256 365 243 350 186 312 c 1
 186 52 l 2
 186 32 228 32 234 26 c 0
 237 23 238 22 238 -4 c 1
 214 -1 193 0 152 0 c 3
 111 0 65 -1 35 -4 c 1
 35 9 38 16 42 20 c 0
 55 33 100 28 100 52 c 2
 100 315 l 2xbc
EndSplineSet
Validated: 1
EndChar

StartChar: l
Encoding: 108 108 8
Width: 278
VWidth: 0
Flags: W
HStem: -4 30<191.917 237.182> 614 28<42 88.5454> 681 20G<174.5 190>
VStem: 100 86<33.9572 607.543>
LayerCount: 2
Back
Fore
SplineSet
186 615 m 2
 186 52 l 18
 186 32 228 32 234 26 c 0
 237 23 238 22 238 -4 c 1
 214 -1 180 0 139 0 c 0
 98 0 65 -1 35 -4 c 1
 35 9 37 16 41 20 c 0
 54 33 100 28 100 52 c 10
 100 565 l 18
 100 605 77 614 42 614 c 9
 42 642 l 17
 73 642 157 672 192 701 c 1
 188 682 186 660 186 615 c 2
EndSplineSet
EndChar

StartChar: r
Encoding: 114 114 9
Width: 406
VWidth: 0
Flags: W
HStem: -4 30<197.605 277.182> 354 76<267.61 342.445> 364 28<42 88.5454>
VStem: 100 86<37.6369 319.058 338 357.543>
LayerCount: 2
Back
Fore
SplineSet
100 315 m 18xd0
 100 355 77 364 42 364 c 9
 42 392 l 17xb0
 73 392 157 422 192 451 c 1
 188 432 186 410 186 365 c 2
 186 338 l 1
 237 389 292 430 305 430 c 3
 362 430 391 395 391 378 c 3
 391 357 340 309 322 309 c 1
 316 325 311 354 273 354 c 3
 233 354 220 340 186 289 c 9
 186 52 l 17
 186 32 269 31 274 26 c 1
 277 23 278 22 278 -4 c 1
 255 0 196 0 162 0 c 27
 116 0 65 0 35 -4 c 1
 35 9 38 16 42 20 c 1
 55 33 100 29 100 52 c 9
 100 315 l 18xd0
EndSplineSet
Validated: 1
EndChar

StartChar: u
Encoding: 117 117 10
Width: 542
VWidth: 0
Flags: W
HStem: -10 59<197.158 307.069> 24 44<480.765 517> 387 30<30.8175 83.7288 283.818 343.616> 410 20G<155 172 410 432>
VStem: 88 84<76.6922 380.904> 348 84<71.7115 380.36>
LayerCount: 2
Back
Fore
SplineSet
432 430 m 1x1c
 432 87 l 18
 432 65 449 55 471 55 c 3
 485 55 505 62 517 68 c 9
 517 24 l 17x5c
 341 -10 l 1
 344 0 348 13 348 37 c 2
 348 42 l 1
 316 10 270 -10 224 -10 c 3
 138 -10 88 56 88 146 c 10
 88 365 l 18
 88 385 39 382 34 387 c 1
 31 390 30 391 30 417 c 1xac
 53 417 138 430 172 430 c 1x1c
 172 133 l 2
 172 99 196 49 250 49 c 3
 286 49 311 58 348 87 c 9
 348 365 l 18
 348 385 292 382 287 387 c 1
 284 390 283 391 283 417 c 1xac
 311 417 388 430 432 430 c 1x1c
EndSplineSet
EndChar

StartChar: d
Encoding: 100 100 11
Width: 532
VWidth: 0
Flags: W
HStem: -10 39<204.57 298.555> 23 23<465.97 498> 391 39<186.176 308.468> 614 28<289 335.614> 681 20G<421.5 437>
VStem: 35 97<113.561 303.635> 347 86<51.4072 353.375 411 607.851>
LayerCount: 2
Back
Fore
SplineSet
347 565 m 2xbe
 347 606 324 614 289 614 c 9
 289 642 l 17
 320 642 404 672 439 701 c 1
 435 682 433 659 433 615 c 2
 433 72 l 2
 433 56 442 46 459 46 c 2
 498 46 l 9
 498 23 l 17x7e
 347 -10 l 1
 347 43 l 1
 299 3 261 -10 249 -10 c 3
 114 -10 35 84 35 202 c 3
 35 358 162 430 255 430 c 3
 302 430 324 424 347 411 c 1
 347 565 l 2xbe
347 261 m 2
 347 334 326 391 243 391 c 3
 199 391 132 357 132 228 c 3
 132 127 176 29 262 29 c 3xbe
 309 29 338 62 347 72 c 1
 347 261 l 2
EndSplineSet
Validated: 1
EndChar

StartChar: o
Encoding: 111 111 12
Width: 495
VWidth: 0
Flags: W
HStem: -10 39<199.57 313.415> 391 39<181.176 297.907>
VStem: 30 97<113.561 303.635> 368 97<106.322 307.432>
LayerCount: 2
Back
Fore
SplineSet
238 391 m 3
 194 391 127 357 127 228 c 3
 127 127 171 29 257 29 c 3
 308 29 368 70 368 188 c 3
 368 287 333 391 238 391 c 3
30 202 m 3
 30 358 157 430 250 430 c 3
 383 430 465 332 465 214 c 3
 465 67 373 -10 244 -10 c 3
 109 -10 30 84 30 202 c 3
EndSplineSet
EndChar

StartChar: q
Encoding: 113 113 13
Width: 494
VWidth: 0
Flags: W
HStem: -274 30<437.917 483.182> -10 39<204.57 310.042> 391 39<186.176 308.28>
VStem: 35 97<113.561 303.635> 347 85<-235.99 30 43.8727 353.375>
LayerCount: 2
Back
Fore
SplineSet
35 202 m 3
 35 358 162 430 255 430 c 3
 302 430 342 418 367 397 c 1
 439 430 l 1
 435 411 432 381 432 339 c 2
 432 -218 l 2
 432 -238 474 -238 480 -244 c 0
 483 -247 484 -248 484 -274 c 1
 460 -271 426 -270 385 -270 c 0
 344 -270 311 -271 281 -274 c 1
 281 -261 284 -255 288 -251 c 0
 301 -238 347 -242 347 -218 c 2
 347 30 l 1
 314 6 261 -10 249 -10 c 3
 114 -10 35 84 35 202 c 3
347 261 m 2
 347 334 326 391 243 391 c 3
 199 391 132 357 132 228 c 3
 132 127 176 29 262 29 c 3
 309 29 337 49 346 59 c 1
 347 261 l 2
EndSplineSet
Validated: 1
EndChar

StartChar: a
Encoding: 97 97 14
Width: 471
VWidth: 0
Flags: W
HStem: -10 75<332 407.947> -10 56<132.732 236.453> 381 49<145.866 265.918>
VStem: 35 84<59.5496 155.582> 48 91<279.309 361.161> 275 86<66.6946 201 234.129 313.962> 282 79<240.992 364.973>
LayerCount: 2
Back
Fore
SplineSet
119 110 m 3x74
 119 63 149 46 185 46 c 27
 224 46 254 63 275 84 c 9
 275 201 l 17
 225 186 119 187 119 110 c 3x74
361 286 m 10
 361 104 l 18x6c
 361 90 364 65 383 65 c 11
 405 65 419 74 430 96 c 9
 446 68 l 17
 423 19 397 -10 348 -10 c 27
 316 -10 282 7 282 39 c 1xa2
 242 11 197 -10 171 -10 c 3
 97 -10 35 24 35 98 c 3
 35 203 189 214 275 240 c 9x74
 278 261 282 293 282 315 c 27
 282 349 255 381 225 381 c 3
 154 381 141 374 139 326 c 0
 138 290 132 274 100 274 c 3
 76 274 48 283 48 307 c 27x6a
 48 332 58 352 74 365 c 0
 91 379 151 430 237 430 c 3
 333 430 361 396 361 286 c 10
EndSplineSet
EndChar

StartChar: exclam
Encoding: 33 33 16
Width: 270
VWidth: 0
Flags: W
HStem: -13 112<86.538 173.462> 640 20G<137.5 162.5>
VStem: 75 110<-1.89597 87.896> 85 100<544.1 654>
LayerCount: 2
Back
Fore
SplineSet
85 654 m 0xd0
 85 654 125 660 150 660 c 27
 175 660 185 632 185 607 c 27
 185 444 167 352 156 189 c 17
 139 184 139 177 126 177 c 27
 121 177 118 179 115 183 c 1
 85 654 l 0xd0
EndSplineSet
Refer: 4 46 S 1 0 0 1 5 0 2
Validated: 1
EndChar

StartChar: p
Encoding: 112 112 17
Width: 549
VWidth: 0
Flags: W
HStem: -274 30<198.725 255.182> -10 39<231.937 362.869> 364 28<47 93.5454> 391 39<238.709 347.386>
VStem: 105 86<-234.586 46 57.5957 356.409> 417 97<106.322 307.432>
LayerCount: 2
Back
Fore
SplineSet
105 315 m 2xdc
 105 355 82 364 47 364 c 9
 47 392 l 17
 78 392 162 422 197 451 c 1
 193 432 191 409 191 364 c 1xec
 220 403 257 430 300 430 c 3
 433 430 514 332 514 214 c 3
 514 67 423 -10 294 -10 c 3
 256 -10 219 12 191 46 c 1
 191 -218 l 2
 191 -238 246 -238 252 -244 c 0
 255 -247 256 -248 256 -274 c 1
 232 -271 185 -270 144 -270 c 0
 103 -270 70 -271 40 -274 c 1
 40 -261 42 -255 46 -251 c 0
 59 -238 105 -242 105 -218 c 2
 105 315 l 2xdc
191 325 m 1
 191 87 l 1
 209 51 243 29 306 29 c 3
 357 29 417 70 417 188 c 3
 417 287 382 391 287 391 c 3xdc
 245 391 212 365 191 325 c 1
EndSplineSet
Validated: 1
EndChar

StartChar: b
Encoding: 98 98 18
Width: 530
VWidth: 0
Flags: W
HStem: -10 39<219.882 342.803> 391 39<203.052 327.407> 617 28<27 73.6137> 684 20G<159.5 175>
VStem: 85 86<72.3594 364.512 398 610.776> 397 98<106.322 307.432>
LayerCount: 2
Back
Fore
SplineSet
171 618 m 2
 171 398 l 1
 199 425 245 430 280 430 c 3
 413 430 495 332 495 214 c 3
 495 67 402 -10 273 -10 c 3
 204 -10 127 11 85 58 c 1
 85 567 l 2
 85 609 62 617 27 617 c 9
 27 645 l 17
 58 645 142 675 177 704 c 1
 173 685 171 662 171 618 c 2
171 343 m 1
 171 131 l 2
 171 71 227 29 287 29 c 3
 338 29 397 70 397 188 c 3
 397 287 362 391 267 391 c 3
 243 391 196 379 171 343 c 1
EndSplineSet
Validated: 1
EndChar

StartChar: e
Encoding: 101 101 19
Width: 444
VWidth: 0
Flags: W
HStem: -10 39<200.928 331.133> 222 43<135 283.846> 235 30<262.154 328> 391 39<184.054 286.876>
VStem: 35 97<112.708 222 265 307.656> 328 86<265 333.155>
LayerCount: 2
Back
Fore
SplineSet
328 265 m 1xbc
 328 331 297 391 236 391 c 3
 197 391 147 364 135 265 c 1xdc
 328 265 l 1xbc
249 430 m 3
 326 430 414 364 414 235 c 1xbc
 132 222 l 1
 132 121 179 29 255 29 c 3
 306 29 354 53 385 93 c 1
 405 81 l 1
 372 20 321 -10 243 -10 c 3
 108 -10 35 72 35 198 c 3
 35 372 156 430 249 430 c 3
EndSplineSet
Validated: 1
EndChar

StartChar: c
Encoding: 99 99 20
Width: 345
VWidth: 0
Flags: HW
HStem: -10 30<170.294 269.114> 300 30<155.546 240.298>
VStem: 35 75<79.7411 240.189>
LayerCount: 2
Back
Fore
SplineSet
200 300 m 3
 166 300 110 274 110 175 c 3
 110 97 149 20 215 20 c 3
 254 20 286 40 310 71 c 9
 330 60 l 17
 304 13 265 -10 205 -10 c 3
 101 -10 35 64 35 155 c 3
 35 275 138 330 210 330 c 3
 273 330 320 297 320 279 c 3
 320 262 308 245 287 245 c 3
 262 245 253 300 200 300 c 3
EndSplineSet
Validated: 1
EndChar

StartChar: c
Encoding: 99 99 21
Width: 443
VWidth: 0
Flags: W
HStem: -10 39<210.36 340.138> 391 39<191.174 301.325>
VStem: 35 97<119.979 307.25>
LayerCount: 2
Back
Fore
SplineSet
249 391 m 7
 205 391 132 357 132 228 c 7
 132 127 183 29 269 29 c 7
 320 29 361 55 392 95 c 13
 418 81 l 21
 385 20 333 -10 255 -10 c 7
 120 -10 35 62 35 212 c 7
 35 368 169 430 262 430 c 7
 343 430 405 387 405 364 c 7
 405 342 389 319 362 319 c 7
 330 319 317 391 249 391 c 7
EndSplineSet
Validated: 1
EndChar

StartChar: s
Encoding: 115 115 22
Width: 374
VWidth: 0
Flags: W
HStem: -10 44<106.461 237.018> 386 44<140.422 255.185>
VStem: 35 23<93.6673 118.205> 41 90<275.994 372.744> 249 90<45.2545 144.796> 290 23<307.934 335.123>
LayerCount: 2
Back
Fore
SplineSet
339 125 m 3xd8
 339 16 261 -10 188 -10 c 3
 131 -10 72 6 51 16 c 1
 35 116 l 1
 45 120 53 120 58 120 c 1
 76 58 137 34 175 34 c 7
 235 34 249 57 249 99 c 3xe8
 249 146 203 164 171 174 c 0
 147 182 41 214 41 300 c 3
 41 402 132 430 205 430 c 3
 262 430 277 421 298 411 c 1
 313 310 l 1
 303 306 295 307 290 307 c 1xd4
 272 369 230 386 192 386 c 3
 143 386 131 364 131 326 c 3
 131 277 171 256 211 243 c 0
 249 231 339 195 339 125 c 3xd8
EndSplineSet
EndChar

StartChar: g
Encoding: 103 103 23
Width: 471
VWidth: 0
Flags: W
HStem: -270 39<161.029 308.596> 117 39<177.248 281.885> 351 61<388 437> 391 39<167.506 261.844>
VStem: 35 84<-193.837 -93.804> 47 85<203.605 340.566> 307 85<195.847 340.553> 385 59<-163.065 -68.8622>
LayerCount: 2
Back
Fore
SplineSet
47 260 m 3xe4
 47 351 124 430 229 430 c 3xd4
 267 430 300 417 325 398 c 1
 451 412 l 1
 444 396 437 366 437 351 c 1
 368 351 l 1
 384 326 392 300 392 280 c 3
 392 185 324 117 217 117 c 3
 200 117 183 119 168 123 c 1
 150 99 132 71 132 58 c 3xe6
 132 47 281 46 281 46 c 2
 366 39 444 3 444 -107 c 3
 444 -163 352 -270 210 -270 c 3
 111 -270 35 -233 35 -146 c 3
 35 -124 52 -86 119 -26 c 1xe9
 81 -26 41 11 41 46 c 1
 74 60 109 110 124 142 c 1
 74 172 47 222 47 260 c 3xe4
217 391 m 3
 170 391 132 351 132 286 c 3
 132 220 169 156 229 156 c 3
 278 156 307 186 307 254 c 3xd6
 307 316 272 391 217 391 c 3
171 -26 m 1
 126 -62 119 -108 119 -146 c 3
 119 -176 153 -231 229 -231 c 3
 273 -231 385 -209 385 -120 c 3xc9
 385 -75 332 -26 269 -26 c 2
 171 -26 l 1
EndSplineSet
Validated: 1
EndChar

StartChar: f
Encoding: 102 102 24
Width: 335
VWidth: 0
Flags: W
HStem: -4 30<183.864 241.182> 370 50<48.3193 91 176 296.52> 646 59<232.476 325.677>
VStem: 91 85<35.6212 370 420 559.355>
LayerCount: 2
Back
Fore
SplineSet
176 420 m 5
 322 420 l 1
 296 364 l 1
 290 365 272 370 237 370 c 2
 176 370 l 1
 176 52 l 2
 176 32 232 32 238 26 c 0
 241 23 242 22 242 -4 c 1
 218 -1 171 0 130 0 c 0
 89 0 56 -1 26 -4 c 1
 26 9 28 16 32 20 c 0
 45 33 91 28 91 52 c 2
 91 370 l 1
 59 370 48 367 30 364 c 1
 30 386 36 411 60 420 c 1
 91 420 l 1
 91 455 l 2
 91 639 245 705 318 705 c 0
 375 705 430 650 430 633 c 0
 430 612 376 587 358 587 c 1
 322 631 315 646 254 646 c 0
 214 646 176 607 176 455 c 2
 176 420 l 5
EndSplineSet
Validated: 1
EndChar

StartChar: t
Encoding: 116 116 25
Width: 357
VWidth: 0
Flags: W
HStem: -10 39<198.392 285.086> 375 45<179 302.156>
VStem: 93 86<44.8524 375>
LayerCount: 2
Back
Fore
SplineSet
166 515 m 3
 178 515 179 505 179 505 c 1
 179 420 l 1
 327 420 l 1
 301 370 l 1
 295 371 284 375 249 375 c 2
 179 375 l 1
 179 173 l 2
 179 72 189 29 237 29 c 3
 270 29 296 53 327 93 c 1
 347 81 l 1
 314 20 271 -10 223 -10 c 3
 134 -10 93 36 93 154 c 2
 93 375 l 1
 35 375 l 1
 35 388 44 397 55 408 c 2
 55 408 156 515 166 515 c 3
EndSplineSet
Validated: 1
EndChar

StartChar: v
Encoding: 118 118 26
Width: 455
VWidth: 0
Flags: W
HStem: -10 21G<219.5 233.5> 394 26<299.517 340.874>
LayerCount: 2
Back
Fore
SplineSet
450 420 m 1
 450 407 448 404 444 400 c 0
 431 387 406 390 398 368 c 2
 262 0 l 2
 258 -10 241 -10 226 -10 c 3
 213 -10 198 -10 194 0 c 2
 57 368 l 2
 50 386 14 389 9 394 c 0
 6 397 5 394 5 420 c 1
 215 420 l 1
 215 407 212 404 208 400 c 0
 195 387 150 394 150 368 c 3
 249 91 l 1
 351 368 l 3
 351 387 308 389 303 394 c 0
 300 397 299 394 299 420 c 1
 450 420 l 1
EndSplineSet
Validated: 1
EndChar

StartChar: w
Encoding: 119 119 27
Width: 676
VWidth: 0
Flags: W
HStem: -10 21G<206.5 220.5 440.5 454.5> 394 26<520.517 561.874>
LayerCount: 2
Back
Fore
SplineSet
202 420 m 1
 202 407 199 404 195 400 c 0
 182 387 150 390 150 368 c 1
 237 94 l 1
 323 327 l 1
 311 368 l 2
 305 386 268 389 263 394 c 0
 260 397 259 394 259 420 c 1
 462 420 l 1
 462 407 459 404 455 400 c 0
 442 387 397 394 397 368 c 1
 472 97 l 1
 572 368 l 1
 572 387 529 389 524 394 c 0
 521 397 520 394 520 420 c 1
 671 420 l 1
 671 407 669 404 665 400 c 0
 652 387 628 390 619 368 c 2
 483 0 l 2
 479 -10 462 -10 447 -10 c 3
 434 -10 418 -9 415 0 c 2
 343 255 l 1
 249 0 l 2
 245 -10 228 -10 213 -10 c 3
 200 -10 184 -10 181 0 c 2
 57 368 l 2
 50 386 14 389 9 394 c 0
 6 397 5 394 5 420 c 1
 202 420 l 1
EndSplineSet
Validated: 1
EndChar

StartChar: z
Encoding: 122 122 28
Width: 421
VWidth: 0
Flags: W
HStem: 0 72<146 334.997> 348 72<88.6919 281>
VStem: 35 24<277.795 303.574> 368 23<115.783 139.205>
LayerCount: 2
Back
Fore
SplineSet
390 420 m 9
 146 72 l 29
 251 72 l 6
 289 72 350 79 368 141 c 5
 373 141 381 141 391 137 c 5
 376 13 l 1
 355 3 295 0 238 0 c 2
 30 0 l 25
 281 348 l 17
 156 348 l 2
 118 348 77 338 59 276 c 1
 54 276 45 276 35 280 c 1
 51 400 l 1
 72 410 86 420 143 420 c 2
 390 420 l 9
EndSplineSet
EndChar

StartChar: y
Encoding: 121 121 29
Width: 473
VWidth: 0
Flags: W
HStem: -270 21G<179 187> 394 26<299.517 340.874>
VStem: 96 91<-261.862 -203.74>
LayerCount: 2
Back
Fore
SplineSet
468 420 m 1
 468 407 466 404 462 400 c 0
 449 387 425 390 416 368 c 2
 273 0 l 2
 214 -151 187 -231 187 -270 c 1
 171 -269 112 -266 96 -260 c 1
 96 -228 136 -190 200 -10 c 1
 57 368 l 2
 50 386 14 389 9 394 c 0
 6 397 5 394 5 420 c 1
 215 420 l 1
 215 407 212 404 208 400 c 0
 195 387 150 394 150 368 c 3
 249 91 l 1
 351 368 l 3
 351 387 308 389 303 394 c 0
 300 397 299 394 299 420 c 1
 468 420 l 1
EndSplineSet
Validated: 1
EndChar

StartChar: k
Encoding: 107 107 30
Width: 525
VWidth: 0
Flags: MW
HStem: -4 30<191.917 237.003 296.818 341.203> 208 39<186 197> 394 26<259.517 301.75> 614 28<42 88.6137> 681 20G<174.5 190>
VStem: 100 86<33.9572 208 247 607.851>
DStem2: 197 247 265 240 0.68089 0.732386<41.1738 167.533> 265 240 197 208 0.697461 -0.716622<0 193.788>
LayerCount: 2
Back
Fore
SplineSet
100 565 m 18
 100 606 77 614 42 614 c 9
 42 642 l 17
 73 642 157 672 192 701 c 1
 188 682 186 659 186 615 c 2
 186 247 l 1
 197 247 l 9
 311 368 l 19
 311 388 268 389 263 394 c 1
 260 397 259 394 259 420 c 1
 449 420 l 1
 449 407 447 404 443 400 c 1
 430 387 400 385 384 368 c 10
 265 240 l 29
 447 53 l 22
 463 36 493 33 506 20 c 1
 510 16 512 10 512 -3 c 1
 482 1 453 1 415 1 c 27
 369 1 319 1 296 -3 c 1
 296 23 297 24 300 27 c 1
 305 32 348 32 348 53 c 7
 197 208 l 21
 186 208 l 9
 186 52 l 18
 186 32 228 32 234 26 c 1
 237 23 238 22 238 -4 c 1
 214 -1 186 0 152 0 c 27
 106 0 65 -1 35 -4 c 1
 35 9 37 16 41 20 c 1
 54 33 100 28 100 52 c 10
 100 565 l 18
EndSplineSet
Validated: 1
EndChar

StartChar: x
Encoding: 120 120 31
Width: 468
VWidth: 0
Flags: MW
HStem: -4 30<136.337 183.182> 394 26<16.3403 64.0602 273.818 308.748>
DStem2: 175 368 67 378 0.584952 -0.811068<-8.90894 117.639 189.121 342.454> 70 52 135 48 0.58457 0.811343<28.3981 182.386 279.626 399.401>
LayerCount: 2
Back
Fore
SplineSet
372 0 m 3
 335 0 293 0 266 -4 c 1
 266 8 268 14 272 18 c 0
 284 30 305 30 305 47 c 3
 221 168 l 29
 135 48 l 23
 135 21 175 31 180 26 c 1
 183 23 184 22 184 -4 c 1
 161 0 130 0 95 0 c 27
 62 0 45 0 10 -4 c 1
 10 9 13 16 17 20 c 1
 30 33 47 21 70 52 c 14
 186 213 l 29
 67 378 l 18
 56 393 24 389 19 394 c 1
 16 397 15 394 15 420 c 1
 210 420 l 1
 210 407 207 404 203 400 c 1
 190 387 175 385 175 368 c 3
 243 272 l 25
 312 368 l 19
 312 398 282 385 277 390 c 1
 274 393 273 394 273 420 c 1
 442 420 l 1
 442 407 439 401 435 397 c 1
 422 384 394 393 376 368 c 10
 276 231 l 25
 399 51 l 18
 420 21 438 33 451 20 c 1
 455 16 458 9 458 -4 c 1
 421 0 414 0 372 0 c 3
EndSplineSet
EndChar

StartChar: O
Encoding: 79 79 32
Width: 719
VWidth: 0
Flags: W
HStem: -10 42<285.148 465.367> 619 41<260.866 435.626>
VStem: 35 103<202.589 449.026> 581 103<186.044 448.246>
LayerCount: 2
Back
Fore
SplineSet
339 619 m 3
 214 619 138 501 138 337 c 3
 138 176 213 32 380 32 c 3
 498 32 581 124 581 301 c 3
 581 436 535 619 339 619 c 3
35 313 m 3
 35 523 170 660 351 660 c 3
 570 660 684 494 684 325 c 3
 684 85 530 -10 369 -10 c 3
 163 -10 35 120 35 313 c 3
EndSplineSet
EndChar

StartChar: E
Encoding: 69 69 33
Width: 616
VWidth: 0
Flags: W
HStem: 0 47<198.16 492.654> 313 48<198 399.718> 408 20G<437 450.436> 603 47<198.271 478.211>
VStem: 105 93<48.9721 313 361 601.028> 412 16<239 271.421>
LayerCount: 2
Back
Fore
SplineSet
152 0 m 2
 114 0 72 0 45 -4 c 1
 45 8 47 14 51 18 c 0
 63 30 105 36 105 57 c 2
 105 593 l 6
 105 614 63 620 51 632 c 0
 47 636 45 642 45 654 c 1
 72 650 115 650 152 650 c 2
 548 650 l 1
 523 512 l 1
 505 518 l 1
 505 518 500 603 424 603 c 2
 229 603 l 2
 222 603 198 597 198 578 c 2
 198 361 l 1
 378 361 l 2
 422 361 409 391 437 422 c 1
 453 428 l 1
 428 233 l 1
 412 239 l 1
 399 263 410 313 376 313 c 2
 198 313 l 1
 198 71 l 2
 198 53 223 47 230 47 c 2
 436 47 l 2
 520 47 554 166 554 166 c 1
 571 160 l 1
 549 0 l 1
 152 0 l 2
EndSplineSet
Validated: 1
EndChar

StartChar: C
Encoding: 67 67 34
Width: 648
VWidth: 0
Flags: W
HStem: -10 42<291.384 529.604> 619 41<272.117 478.01>
VStem: 40 116<188.517 445.804> 556 16<471 498.125>
LayerCount: 2
Back
Fore
SplineSet
532 564 m 1
 478 615 413 619 350 619 c 3
 225 619 156 501 156 337 c 7
 156 176 219 32 386 32 c 3
 472 32 542 48 596 85 c 9
 608 49 l 17
 546 2 465 -10 374 -10 c 3
 168 -10 40 120 40 313 c 3
 40 523 181 660 362 660 c 3
 462 660 530 638 597 613 c 1
 572 465 l 1
 556 471 l 1
 532 564 l 1
EndSplineSet
Validated: 1
EndChar

StartChar: G
Encoding: 71 71 35
Width: 695
VWidth: 0
Flags: W
HStem: -10 42<319.814 504.228> 276 33<399 481.459 614.851 662> 485 21G<566 585.906> 619 41<281.422 488.01>
VStem: 50 106<188.517 445.804> 508 93<36.5551 256.482>
LayerCount: 2
Back
Fore
SplineSet
665 309 m 25
 662 276 l 17
 619 276 602 268 601 185 c 10
 601 26 l 17
 553 2 505 -10 384 -10 c 3
 178 -10 50 120 50 313 c 3
 50 523 191 660 372 660 c 3
 472 660 540 638 607 613 c 1
 582 485 l 5
 566 491 l 5
 542 564 l 1
 488 615 423 619 360 619 c 3
 235 619 156 501 156 337 c 3
 156 176 208 32 457 32 c 3
 480 32 508 38 508 68 c 2
 508 185 l 2
 508 268 469 276 399 276 c 9
 397 309 l 17
 665 309 l 25
EndSplineSet
Validated: 1
EndChar

StartChar: D
Encoding: 68 68 36
Width: 687
VWidth: 0
Flags: W
HStem: 0 47<198.16 435.113> 603 47<198.271 411.11>
VStem: 105 93<48.9721 601.028> 547 100<187.829 448.394>
LayerCount: 2
Back
Fore
SplineSet
343 47 m 2
 461 47 547 124 547 301 c 3
 547 436 504 603 308 603 c 2
 229 603 l 2
 222 603 198 597 198 578 c 2
 198 71 l 2
 198 53 223 47 230 47 c 2
 343 47 l 2
152 0 m 2
 114 0 72 0 45 -4 c 1
 45 8 47 14 51 18 c 0
 63 30 105 36 105 57 c 6
 105 593 l 2
 105 614 63 620 51 632 c 0
 47 636 45 642 45 654 c 1
 72 650 115 650 152 650 c 2
 320 650 l 2
 556 650 647 494 647 325 c 3
 647 85 493 0 332 0 c 2
 152 0 l 2
EndSplineSet
Validated: 1
EndChar

StartChar: B
Encoding: 66 66 37
Width: 610
VWidth: 0
Flags: W
HStem: 0 47<198.16 400.325> 318 40<198 353.586> 603 47<198.271 356.047>
VStem: 105 93<48.9721 318 358 601.028> 424 96<422.78 543.034> 462 98<99.9127 243.712>
LayerCount: 2
Back
Fore
SplineSet
297 47 m 2xf4
 449 47 462 133 462 170 c 3
 462 239.180664062 408 318 290 318 c 2
 198 318 l 1
 198 71 l 2
 198 53 223 47 230 47 c 2
 297 47 l 2xf4
317 0 m 2
 152 0 l 2
 114 0 72 0 45 -4 c 1
 45 8 47 14 51 18 c 0
 63 30 105 36 105 57 c 6
 105 593 l 2
 105 614 63 620 51 632 c 0
 47 636 45 642 45 654 c 1
 72 650 115 650 152 650 c 2
 298 650 l 2
 446 650 520 565 520 502 c 3xf8
 520 409 447 352 379 344 c 1
 478 337 560 278 560 182 c 3
 560 84 481 0 317 0 c 2
281 603 m 2
 229 603 l 2
 222 603 198 597 198 578 c 2
 198 358 l 1
 266 358 l 2
 366 358 424 416 424 479 c 3
 424 543 363 603 281 603 c 2
EndSplineSet
Validated: 1
EndChar

StartChar: F
Encoding: 70 70 38
Width: 600
VWidth: 0
Flags: W
HStem: -4 28<207.249 281.182> 307 48<198 405.718> 402 20G<443 456.436> 603 47<198.271 490.211>
VStem: 105 93<34.6965 307 355 601.028> 418 16<233 265.421>
LayerCount: 2
Back
Fore
SplineSet
229 603 m 2
 222 603 198 597 198 578 c 2
 198 355 l 1
 384 355 l 2
 428 355 415 385 443 416 c 1
 459 422 l 1
 434 227 l 1
 418 233 l 1
 405 257 416 307 382 307 c 2
 198 307 l 1
 198 47 l 2
 198 29 273 29 278 24 c 0
 281 21 282 19 282 -4 c 1
 260 -1 183 0 146 0 c 3
 109 0 72 -1 45 -4 c 1
 45 8 47 14 51 18 c 0
 63 30 105 36 105 57 c 2
 105 593 l 2
 105 614 63 620 51 632 c 0
 47 636 45 642 45 654 c 1
 72 650 115 650 152 650 c 2
 560 650 l 1
 535 512 l 1
 517 518 l 1
 517 518 512 603 436 603 c 2
 229 603 l 2
EndSplineSet
Validated: 1
EndChar

StartChar: L
Encoding: 76 76 39
Width: 555
VWidth: 0
Flags: W
HStem: 0 47<205.436 457.875> 630 20G<45 258>
VStem: 105 93<54.1436 611.995>
LayerCount: 2
Back
Fore
SplineSet
258 650 m 1
 258 626 257 628 255 626 c 0
 250 621 198 611 198 593 c 2
 198 130 l 2
 198 49 208 47 289 47 c 2
 404 47 l 2
 488 47 522 176 522 176 c 5
 540 170 l 5
 517 0 l 1
 152 0 l 2
 114 0 72 0 45 -4 c 1
 45 8 47 14 51 18 c 0
 63 30 105 36 105 57 c 2
 105 593 l 2
 105 614 63 620 51 632 c 0
 47 636 45 638 45 650 c 1
 258 650 l 1
EndSplineSet
Validated: 1
EndChar

StartChar: I
Encoding: 73 73 40
Width: 305
VWidth: 0
Flags: W
HStem: -4 21G<35 48.5 259.5 270> 630 20G<35 270>
VStem: 106 92<39.8081 610.192>
LayerCount: 2
Back
Fore
SplineSet
270 650 m 1
 270 626 268 628 266 626 c 0
 261 621 198 611 198 593 c 2
 198 57 l 2
 198 39 261 29 266 24 c 0
 268 22 270 20 270 -4 c 1
 249 0 190 0 153 0 c 3
 116 0 62 0 35 -4 c 1
 35 8 37 14 41 18 c 0
 53 30 106 36 106 57 c 2
 106 593 l 2
 106 614 53 620 41 632 c 0
 37 636 35 638 35 650 c 1
 270 650 l 1
EndSplineSet
EndChar

StartChar: H
Encoding: 72 72 41
Width: 757
VWidth: 0
Flags: W
HStem: -4 21G<35 48.5 260.5 271 486 499.5 711.5 722> 307 48<199 557> 630 20G<35 271 486 722>
VStem: 106 93<39.8081 307 355 610.175> 557 93<39.8081 307 355 610.192>
LayerCount: 2
Back
Fore
SplineSet
722 650 m 1
 722 626 721 628 719 626 c 0
 714 621 650 611 650 593 c 2
 650 57 l 2
 650 39 714 29 719 24 c 0
 721 22 722 20 722 -4 c 1
 701 0 641 0 604 0 c 3
 567 0 513 0 486 -4 c 1
 486 8 488 14 492 18 c 0
 504 30 557 36 557 57 c 2
 557 307 l 1
 199 307 l 1
 199 57 l 2
 199 39 262 29 267 24 c 0
 269 22 271 20 271 -4 c 1
 250 0 184 0 147 0 c 3
 110 0 62 0 35 -4 c 1
 35 8 37 14 41 18 c 0
 53 30 106 36 106 57 c 2
 106 593 l 2
 106 614 53 620 41 632 c 0
 37 636 35 638 35 650 c 1
 271 650 l 1
 271 626 269 628 267 626 c 0
 262 621 199 610 199 593 c 2
 199 355 l 1
 557 355 l 1
 557 593 l 2
 557 614 504 620 492 632 c 0
 488 636 486 638 486 650 c 1
 722 650 l 1
EndSplineSet
EndChar

StartChar: T
Encoding: 84 84 42
Width: 609
VWidth: 0
Flags: W
HStem: -4 28<386.077 433.954> 603 47<87.125 264 358 534.531>
VStem: 264 94<40.4312 603>
LayerCount: 2
Back
Fore
SplineSet
358 603 m 25
 358 57 l 2
 358 39 426 29 431 24 c 4
 433 22 435 20 435 -4 c 5
 414 0 348 0 311 0 c 3
 274 0 215 0 188 -4 c 1
 188 8 190 14 194 18 c 0
 206 30 264 36 264 57 c 2
 264 603 l 25
 141 603 l 2
 57 603 23 474 23 474 c 1
 5 480 l 1
 28 650 l 1
 597 650 l 1
 604 480 l 1
 586 474 l 1
 586 474 567 603 483 603 c 2
 358 603 l 25
EndSplineSet
Validated: 1
EndChar

StartChar: A
Encoding: 65 65 43
Width: 668
VWidth: 0
Flags: W
HStem: -4 28<153.331 205.384> 0 57<41.1039 64> 236 48<204 401> 640 20G<332 349>
LayerCount: 2
Back
Fore
SplineSet
204 284 m 1x30
 401 284 l 1
 366 375 327 474 302 542 c 1
 271 463 235 369 204 284 c 1x30
64 57 m 2x70
 64 57 267 629 288 638 c 1
 292 647 319 660 345 660 c 3
 353 660 361 657 363 650 c 0
 382 588 594 57 594 57 c 2x70
 601 40 654 29 659 24 c 0
 661 22 663 20 663 -4 c 1xb0
 642 0 574 0 537 0 c 3x70
 500 0 458 0 431 -4 c 1xb0
 431 8 433 14 437 18 c 0
 449 30 490 31 490 57 c 3
 490 57 458 136 419 236 c 1
 187 236 l 1
 150 134 122 57 122 57 c 3x70
 122 39 198 29 203 24 c 0
 205 22 206 20 206 -4 c 1xb0
 185 0 140 0 103 0 c 3x70
 66 0 32 0 5 -4 c 1xb0
 5 8 7 14 11 18 c 0
 23 30 56 37 64 57 c 2x70
EndSplineSet
Validated: 1
EndChar

StartChar: N
Encoding: 78 78 44
Width: 752
VWidth: 0
Flags: W
HStem: -4 21G<29 42.5 225.5 236> 630 20G<20 170 537 722>
VStem: 100 64<39.8081 498> 607 64<148 612.723>
LayerCount: 2
Back
Fore
SplineSet
607 0 m 1
 466.692908514 178.798305945 311.448242188 328.38671875 164 498 c 1
 164 57 l 2
 164 39 227 29 232 24 c 0
 234 22 236 20 236 -4 c 1
 215 0 149 0 112 0 c 0
 75 0 56 0 29 -4 c 1
 29 8 31 14 35 18 c 0
 47 30 100 36 100 57 c 2
 100 587 l 2
 100 612 38 617 26 629 c 0
 22 633 20 638 20 650 c 1
 170 650 l 1
 170 617 480 320 607 148 c 5
 607 593 l 2
 607 613 555 620 543 632 c 0
 539 636 537 638 537 650 c 1
 722 650 l 1
 722 626 720 628 718 626 c 0
 713 621 671 610 671 593 c 2
 671 -12 l 1
 645 -12 628 -12 607 0 c 1
EndSplineSet
Validated: 1
EndChar

StartChar: R
Encoding: 82 82 46
Width: 637
VWidth: 0
Flags: W
HStem: 0 19<594.359 632> 286 41<198 299.406> 603 47<198.271 357.461>
VStem: 105 93<39.9668 286 327 601.028> 442 95<396.393 530.061>
LayerCount: 2
Back
Fore
SplineSet
258 603 m 2
 229 603 l 2
 222 603 198 597 198 578 c 2
 198 327 l 1
 244 327 l 2
 344 327 442 368 442 464 c 3
 442 528 386 603 258 603 c 2
198 286 m 1
 198 57 l 2
 198 39 263 29 268 24 c 0
 270 22 272 20 272 -4 c 1
 251 0 183 0 146 0 c 3
 109 0 72 0 45 -4 c 1
 45 8 47 14 51 18 c 0
 63 30 105 36 105 57 c 2
 105 593 l 2
 105 614 63 620 51 632 c 0
 47 636 45 642 45 654 c 1
 72 650 115 650 152 650 c 2
 305 650 l 2
 453 650 537 551 537 488 c 3
 537 409 509 339 401 291 c 1
 537 54 578 19 637 19 c 1
 632 0 l 1
 489 0 l 2
 436 0 351 248 284 276 c 1
 255.475206619 278.194214875 225.716167257 282.384847749 198 286 c 1
EndSplineSet
EndChar

StartChar: P
Encoding: 80 80 47
Width: 577
VWidth: 0
Flags: W
HStem: -4 28<228.924 281.182> 268 48<198 360.468> 603 47<198.271 360.907>
VStem: 105 93<41.1516 268 316 601.028> 442 95<383.762 529.348>
LayerCount: 2
Back
Fore
SplineSet
277 268 m 2
 198 268 l 1
 198 57 l 6
 198 39 273 29 278 24 c 0
 281 21 282 19 282 -4 c 1
 260 -1 183 0 146 0 c 0
 109 0 72 -1 45 -4 c 1
 45 8 47 14 51 18 c 0
 63 30 105 36 105 57 c 6
 105 593 l 2
 105 614 63 620 51 632 c 0
 47 636 45 642 45 654 c 1
 72 650 115 650 152 650 c 2
 315 650 l 2
 463 650 537 542 537 479 c 3
 537 354 476 268 277 268 c 2
268 603 m 2
 229 603 l 2
 222 603 198 597 198 578 c 2
 198 316 l 1
 254 316 l 2
 354 316 442 360 442 455 c 3
 442 519 396 603 268 603 c 2
EndSplineSet
Validated: 1
EndChar

StartChar: J
Encoding: 74 74 48
Width: 326
VWidth: 0
Flags: W
HStem: -270 71<-25 85.4527> 630 20G<66 301>
VStem: 137 92<-73.4711 610.192>
LayerCount: 2
Back
Fore
SplineSet
301 650 m 5
 301 626 299 628 297 626 c 4
 292 621 229 611 229 593 c 14
 229 97 l 22
 229 -155 125 -270 -5 -270 c 7
 -45 -270 -95 -242 -95 -222 c 7
 -95 -172 -34 -157 -17 -157 c 5
 -17 -169 35 -199 66 -199 c 7
 128 -199 137 -167 137 168 c 14
 137 593 l 22
 137 614 84 620 72 632 c 4
 68 636 66 638 66 650 c 5
 301 650 l 5
EndSplineSet
Validated: 1
EndChar

StartChar: S
Encoding: 83 83 49
Width: 526
VWidth: 0
Flags: W
HStem: -10 41<196.489 336.329> 619 41<202.229 352.726>
VStem: 50 33<162.33 197.095> 68 93<440.725 560.926> 388 93<82.9313 214.179> 424 33<470.609 522.767>
LayerCount: 2
Back
Fore
SplineSet
481 184 m 7xd8
 481 85 434 -10 273 -10 c 3
 152 -10 89 40 70 49 c 1
 50 196 l 1
 60 198 78 199 83 199 c 1
 100 142 175 31 261 31 c 3
 369 31 388 111 388 149 c 7xe8
 388 242 287 273 257 282 c 0
 235 289 68 343 68 471 c 3
 68 564 128 660 288 660 c 3
 350 660 404 637 437 619 c 1
 457 472 l 1
 446 469 429 469 424 469 c 1xd4
 407 526 391 619 276 619 c 3
 169 619 161 541 161 506 c 3
 161 415 256 381 293 369 c 0
 327 358 481 323 481 184 c 7xd8
EndSplineSet
EndChar

StartChar: U
Encoding: 85 85 50
Width: 741
VWidth: 0
Flags: W
HStem: -10 47<285.553 478.064> 630 20G<35 275 514 701>
VStem: 106 98<133.405 610.192> 585 57<151.156 610.61>
LayerCount: 2
Back
Fore
SplineSet
701 650 m 1
 701 638 700 636 696 632 c 1
 684 620 642 614 642 593 c 10
 642 260 l 18
 642 102 564 -10 358 -10 c 3
 189 -10 106 89 106 260 c 10
 106 593 l 18
 106 611 43 621 38 626 c 1
 36 628 35 626 35 650 c 1
 275 650 l 1
 275 638 273 636 269 632 c 1
 257 620 204 614 204 593 c 10
 204 260 l 18
 204 116 249 37 383 37 c 3
 518 37 585 135 585 260 c 14
 585 593 l 22
 585 611 523 621 518 626 c 5
 516 628 514 626 514 650 c 5
 701 650 l 1
EndSplineSet
Validated: 1
EndChar

StartChar: Q
Encoding: 81 81 51
Width: 719
VWidth: 0
Flags: HW
HStem: -269 19<652.742 702> -10 42<290.148 470.367> 619 41<265.866 440.626>
VStem: 40 103<202.589 449.026> 586 103<186.044 448.246>
LayerCount: 2
Back
Fore
SplineSet
702 -269 m 1
 674 -269 l 17
 423 -269 393 1 317 1 c 9
 449 31 l 17
 528 -185 618 -250 707 -250 c 1
 702 -269 l 1
EndSplineSet
Refer: 32 79 S 1 0 0 1 0 0 2
EndChar

StartChar: V
Encoding: 86 86 52
Width: 692
VWidth: 0
Flags: W
HStem: -10 21G<343.5 359.5> 630 20G<5 254 485 687>
LayerCount: 2
Back
Fore
SplineSet
687 650 m 5
 687 638 685 636 681 632 c 4
 669 620 624 613 616 593 c 6
 386 0 l 6
 383 -9 366 -10 353 -10 c 7
 334 -10 308 -10 306 0 c 6
 76 593 l 6
 70 610 13 621 8 626 c 4
 6 628 5 626 5 650 c 5
 254 650 l 5
 254 638 252 636 248 632 c 4
 236 620 183 623 183 593 c 7
 368 109 l 5
 556 593 l 7
 556 611 493 621 488 626 c 4
 486 628 485 626 485 650 c 5
 687 650 l 5
EndSplineSet
Validated: 1
EndChar

StartChar: W
Encoding: 87 87 53
Width: 987
VWidth: 0
Flags: W
HStem: -10 21G<343.5 359.5 662.5 678.5> 630 20G<5 254 348 597 780 982>
LayerCount: 2
Back
Fore
SplineSet
982 650 m 1
 982 638 981 636 977 632 c 0
 965 620 919 613 912 593 c 2
 705 0 l 2
 702 -10 685 -10 672 -10 c 3
 653 -10 628 -10 625 0 c 2
 511 329 l 1
 386 0 l 2
 383 -9 366 -10 353 -10 c 3
 334 -10 308 -10 306 0 c 2
 76 593 l 2
 70 610 13 621 8 626 c 0
 6 628 5 626 5 650 c 1
 254 650 l 1
 254 638 252 636 248 632 c 0
 236 620 183 623 183 593 c 3
 367 110 l 1
 482 411 l 1
 419 593 l 2
 413 610 356 621 351 626 c 0
 349 628 348 626 348 650 c 1
 597 650 l 1
 597 638 595 636 591 632 c 0
 579 620 526 623 526 593 c 3
 686 120 l 1
 851 593 l 3
 851 611 789 621 784 626 c 0
 782 628 780 626 780 650 c 1
 982 650 l 1
EndSplineSet
Validated: 1
EndChar

StartChar: quotesingle
Encoding: 39 39 54
Width: 195
VWidth: 0
Flags: W
HStem: 399 240
VStem: 60 85<487.035 620.654> 61 46<413 512.638>
LayerCount: 2
Back
Fore
SplineSet
60 606 m 3xc0
 60 614 119 639 132 639 c 3
 143.044921875 639 145 635.083007812 145 629 c 3xc0
 145 607.622070312 121 458 107 413 c 9
 61 399 l 17xa0
 61.9375 412.22265625 65 515 65 528 c 3
 65 562 60 597 60 606 c 3xc0
EndSplineSet
Validated: 1
EndChar

StartChar: X
Encoding: 88 88 55
Width: 658
VWidth: 0
Flags: W
HStem: -4 21G<5 18.5 209.5 220 446 459.5 634.5 653> 624 26<30.5174 78.3395>
LayerCount: 2
Back
Fore
SplineSet
594 61 m 18
 615 31 633 33 646 20 c 1
 650 16 653 9 653 -4 c 1
 616 0 599 0 557 0 c 3
 520 0 473 0 446 -4 c 1
 446 8 448 14 452 18 c 0
 464 30 485 37 485 57 c 3
 325 279 l 25
 148 57 l 19
 148 40 211 29 216 24 c 0
 218 22 220 20 220 -4 c 1
 199 0 160 0 123 0 c 3
 86 0 32 0 5 -4 c 1
 5 8 7 14 11 18 c 0
 23 30 75 40 88 57 c 10
 297 322 l 25
 102 598 l 18
 91 613 39 619 34 624 c 1
 31 627 30 624 30 650 c 1
 250 650 l 1
 250 637 247 634 243 630 c 1
 230 617 215 608 215 588 c 3
 357 392 l 25
 518 593 l 19
 518 614 465 620 453 632 c 0
 449 636 447 638 447 650 c 1
 651 650 l 1
 651 626 648 628 646 626 c 0
 641 621 588 607 577 593 c 10
 386 350 l 25
 594 61 l 18
EndSplineSet
Validated: 1
EndChar

StartChar: Y
Encoding: 89 89 56
Width: 622
VWidth: 0
Flags: W
HStem: -4 21G<192 205.5 416.5 427> 630 20G<5 255 414 617>
VStem: 263 92<39.8081 297>
LayerCount: 2
Back
Fore
SplineSet
617 650 m 1
 617 638 615 636 611 632 c 0
 599 620 558 610 546 593 c 2
 355 306 l 1
 355 57 l 2
 355 39 419 29 424 24 c 0
 426 22 427 20 427 -4 c 1
 406 0 347 0 310 0 c 3
 273 0 219 0 192 -4 c 1
 192 8 194 14 198 18 c 0
 210 30 263 36 263 57 c 2
 263 297 l 1
 76 593 l 2
 66 608 13 621 8 626 c 0
 6 628 5 626 5 650 c 1
 255 650 l 1
 255 638 254 636 250 632 c 0
 238 620 185 623 185 593 c 3
 330 361 l 1
 485 593 l 3
 485 611 422 621 417 626 c 0
 415 628 414 626 414 650 c 1
 617 650 l 1
EndSplineSet
Validated: 1
EndChar

StartChar: M
Encoding: 77 77 57
Width: 845
VWidth: 0
Flags: W
HStem: -4 21G<25 38.5 210.5 221 575 588.5 809.5 820> 630 20G<25 200 644.5 819>
VStem: 95 54<39.8081 478> 646 101<39.9868 490>
LayerCount: 2
Back
Fore
SplineSet
691 650 m 1
 819 650 l 1
 819 626 817 628 815 626 c 0
 810 621 747 610 747 593 c 2
 747 57 l 2
 747 39 811 29 816 24 c 0
 818 22 820 20 820 -4 c 1
 799 0 758 0 721 0 c 3
 684 0 602 0 575 -4 c 1
 575 8 577 14 581 18 c 0
 593 30 646 35 646 57 c 2
 646 490 l 1
 575 349 475 192 393 48 c 1
 354 128 233 346 149 478 c 1
 149 57 l 2
 149 39 213 29 218 24 c 0
 220 22 221 20 221 -4 c 1
 200 0 144 0 107 0 c 3
 70 0 52 0 25 -4 c 1
 25 8 26 14 30 18 c 0
 42 30 95 36 95 57 c 2
 95 587 l 2
 95 612 43 617 31 629 c 0
 27 633 25 638 25 650 c 1
 155 650 l 1
 245 497 377 289 423 202 c 1
 512 360 598 491 691 650 c 1
EndSplineSet
Validated: 1
EndChar

StartChar: K
Encoding: 75 75 58
Width: 667
VWidth: 0
Flags: W
HStem: -4 22G<45 58.5 269.5 280 415 425.5 628.5 642> 630 20G<45 280 379 590>
VStem: 116 92<39.8081 237 336 610.192>
DStem2: 208 336 270 306 0.657905 0.753101<0 18.1971 107.281 346.74> 331 371 270 306 0.621024 -0.783792<13.064 334.323>
LayerCount: 2
Back
Fore
SplineSet
590 650 m 1
 590 638 588 636 584 632 c 0
 572 620 533 609 519 593 c 2
 331 371 l 1
 579 58 l 2
 593 42 634 30 646 18 c 0
 650 14 652 9 652 -3 c 1
 628 0 579 0 523 0 c 3
 481 0 429 0 415 -3 c 1
 415 21 417 22 419 24 c 0
 424 29 463 36 463 58 c 3
 270 306 l 1
 208 237 l 1
 208 57 l 2
 208 39 271 29 276 24 c 0
 278 22 280 20 280 -4 c 1
 259 0 200 0 163 0 c 3
 126 0 72 0 45 -4 c 1
 45 8 47 14 51 18 c 0
 63 30 116 36 116 57 c 2
 116 593 l 2
 116 614 63 620 51 632 c 0
 47 636 45 638 45 650 c 1
 280 650 l 1
 280 626 278 628 276 626 c 0
 271 621 208 611 208 593 c 2
 208 336 l 1
 428 593 l 3
 428 611 377 621 372 626 c 0
 370 628 369 626 369 650 c 1
 590 650 l 1
EndSplineSet
EndChar

StartChar: Z
Encoding: 90 90 59
Width: 575
VWidth: 0
Flags: W
HStem: 0 47<186 442.363> 603 47<138.869 376>
VStem: 60 28<495.795 530.197> 506 28<128.892 164.066>
LayerCount: 2
Back
Fore
SplineSet
503 650 m 9
 186 47 l 25
 388 47 l 2
 422 47 482 80 506 165 c 1
 511 165 525 166 534 162 c 1
 508 12 l 1
 489 3 428 0 376 0 c 2
 53 0 l 25
 376 603 l 17
 188 603 l 6
 142 603 105 551 88 494 c 5
 83 494 69 494 60 498 c 5
 86 632 l 5
 105 641 132 650 176 650 c 6
 503 650 l 9
EndSplineSet
Validated: 1
EndChar

StartChar: zero
Encoding: 48 48 60
Width: 484
VWidth: 0
Flags: W
HStem: -10 39<191.941 305.067> 451 39<183.326 299.704>
VStem: 40 89<116.37 350.424> 355 89<104.54 356.492>
LayerCount: 2
Back
Fore
SplineSet
245 451 m 3
 143.7578125 451 129 348.017578125 129 235 c 3
 129 151.849609375 151.865234375 29 245 29 c 3
 346.004882812 29 355 140.995117188 355 235 c 3
 355 326.022460938 346.004882812 451 245 451 c 3
40 235 m 3
 40 342.004882812 97.986328125 490 245 490 c 3
 398.012695312 490 444 340 444 235 c 3
 444 114.99609375 404.314453125 -10 245 -10 c 3
 95.9462890625 -10 40 117.931640625 40 235 c 3
EndSplineSet
Validated: 1
EndChar

StartChar: one
Encoding: 49 49 61
Width: 346
VWidth: 0
Flags: W
HStem: -4 22<56.0991 104.051 273.078 305.182> 396 30<40 120.422>
VStem: 146 77<33.8841 385.954>
LayerCount: 2
Back
Fore
SplineSet
40 396 m 5
 40 426 l 5
 93 426 193 459 229 500 c 1
 226 483 223 450 223 411 c 6
 223 47 l 18
 223 29 297 29 302 24 c 0
 305 21 306 19 306 -4 c 1
 284 -1 218 0 181 0 c 3
 144 0 78 -1 51 -4 c 1
 51 8 53 14 57 18 c 0
 69 30 146 26 146 47 c 10
 146 348 l 22
 146 374 129 390 100 393 c 14
 40 396 l 5
EndSplineSet
Validated: 1
EndChar

StartChar: two
Encoding: 50 50 62
Width: 459
VWidth: 0
Flags: W
HStem: 0 62<117 368.623> 443 47<131.817 245.344>
VStem: 272 99<297.352 417.162> 402 27<109.187 138.45>
LayerCount: 2
Back
Fore
SplineSet
371 365 m 3
 371 271 216 141 117 62 c 9
 294 62 l 2
 328 62 380 63 402 140 c 1
 407 140 423 139 429 137 c 1
 413 12 l 1
 394 3 334 0 282 0 c 2
 25 0 l 17
 25 44 272 219 272 366 c 3
 272 400 242 443 187 443 c 3
 147 443 104 416 68 309 c 1
 63 309 50 308 41 312 c 1
 57 437 l 1
 76 453 139 490 207 490 c 3
 268 490 371 465 371 365 c 3
EndSplineSet
Validated: 1
EndChar

StartChar: seven
Encoding: 55 55 63
Width: 436
VWidth: 0
Flags: W
HStem: 407 73<93.741 317>
VStem: 25 28<319.934 352.621>
LayerCount: 2
Back
Fore
SplineSet
125 -160 m 21
 214 -10 236 195 317 407 c 1
 153 407 l 2
 107 407 70 376 53 319 c 1
 48 319 34 318 25 322 c 1
 51 462 l 1
 70 471 97 480 141 480 c 2
 421 480 l 1
 292 205 243 -49 223 -160 c 9
 125 -160 l 21
EndSplineSet
Validated: 1
EndChar

StartChar: comma
Encoding: 44 44 64
Width: 270
VWidth: 0
Flags: W
HStem: -131 220
VStem: 121 79<-30.6354 58.1369>
LayerCount: 2
Back
Fore
SplineSet
100 36 m 3
 100 64 154 89 167 89 c 3
 178 89 200 62 200 29 c 3
 200 -29 120 -103 92 -127 c 9
 60 -131 l 17
 61 -118 121 -25 121 -12 c 3
 121 8 100 20 100 36 c 3
EndSplineSet
Validated: 1
EndChar

StartChar: question
Encoding: 63 63 68
Width: 439
VWidth: 0
Flags: W
HStem: -13 112<156.538 243.462> 613 47<132.423 274.78>
VStem: 55 27<513.795 544.865> 130 57<230.925 288.127> 145 110<-1.89597 87.896> 296 103<484.231 592.227>
LayerCount: 2
Back
Fore
SplineSet
187 280 m 3xf4
 187 261 210 217 230 217 c 9
 176 159 l 17
 168 186 130 231 130 256 c 3
 130 273 296 453 296 530 c 3
 296 569 284 613 206 613 c 3
 131 613 99 569 82 512 c 1
 77 512 64 512 55 516 c 1
 81 631 l 1
 100 640 133 660 230 660 c 3
 308 660 399 625 399 542 c 3
 399 452 187 298 187 280 c 3xf4
EndSplineSet
Refer: 4 46 S 1 0 0 1 75 0 2
Validated: 1
EndChar

StartChar: hyphen
Encoding: 45 45 71
Width: 380
VWidth: 0
Flags: W
HStem: 200 55<79.73 300.416>
VStem: 70 240
LayerCount: 2
Back
Fore
SplineSet
300 205 m 1
 216.666015625 204.657226562 153.332527521 205.103330608 70 200 c 1
 76.1967865652 216.234051478 77.0574088073 236.380202101 80 255 c 1
 161.339304218 258.700576364 226.188476562 258.8203125 310 260 c 1
 306.775390625 241.26953125 304.504882812 219.0390625 300 205 c 1
EndSplineSet
Validated: 1
EndChar

StartChar: underscore
Encoding: 95 95 72
Width: 450
VWidth: 0
Flags: W
HStem: -105 60<7.03125 453.74>
LayerCount: 2
Back
Fore
SplineSet
450 -105 m 1
 300 -108 150 -109 0 -110 c 1
 3 -100 4 -90 4 -80 c 3
 4 -70 3 -60 0 -50 c 1
 150 -49 300 -47 450 -45 c 1
 453 -55 454 -65 454 -75 c 3
 454 -85 453 -95 450 -105 c 1
EndSplineSet
Validated: 1
EndChar

StartChar: plus
Encoding: 43 43 73
Width: 420
VWidth: 0
Flags: W
HStem: 203 50<69.7244 191 242 355.287>
VStem: 192 50<75 203 253 375.449>
LayerCount: 2
Back
Fore
SplineSet
241 203 m 1
 240 161 240 120 240 75 c 1
 225 75 210 75 190 70 c 1
 190 117 190 160 191 203 c 1
 149 202 106 201 60 200 c 1
 66 216 67 232 70 250 c 1
 112 252 152 252 192 253 c 1
 193 292 194 332 195 375 c 1
 216 380 228 378 245 380 c 1
 244 336 243 294 242 253 c 1
 282 253 323 254 365 255 c 1
 363 237 358 223 355 205 c 1
 316 204 278 203 241 203 c 1
EndSplineSet
Validated: 1
EndChar

StartChar: equal
Encoding: 61 61 74
Width: 440
VWidth: 0
Flags: W
HStem: 141 55<74.6913 355.211> 264 55<84.8139 365.491>
VStem: 65 310
LayerCount: 2
Back
Fore
SplineSet
355 146 m 1
 258.349609375 144.307617188 159.369140625 146.311523438 65 141 c 1
 71.2939453125 159.333007812 71.6142578125 177.666992188 75 196 c 1
 169.284179688 199.391601562 268.413085938 199.275390625 365 201 c 1
 360.872070312 182.666992188 357.202148438 164.333007812 355 146 c 1
365 269 m 1
 268.331054688 267.334960938 169.387695312 266.923828125 75 264 c 1
 80.787109375 280.647460938 83.0244140625 299.733398438 85 319 c 1
 181.666992188 323.385742188 278.333007812 322.143554688 375 324 c 1
 371.721679688 305.666992188 370.362304688 287.333007812 365 269 c 1
EndSplineSet
Validated: 1
EndChar

StartChar: four
Encoding: 52 52 75
Width: 489
VWidth: 0
Flags: W
HStem: 40 54<109 292 359 455.224>
VStem: 292 67<-159.015 40 94 375>
LayerCount: 2
Back
Fore
SplineSet
292 375 m 1
 221 288 168 180 109 94 c 1
 292 94 l 1
 292 375 l 1
464 99 m 1
 456 47 l 1
 440 41 388 40 354 40 c 1
 354 -24 358.5 -140.5 364 -160 c 1
 287 -160 l 1
 291 -143.5 297 -10 297 40 c 1
 35 40 l 1
 141 205 187 305 303 460 c 1
 365 500 l 1
 363.25 476.924804688 360 466 360 431 c 2
 359 94 l 1
 406 94 451 95 464 99 c 1
EndSplineSet
Validated: 1
EndChar

StartChar: three
Encoding: 51 51 76
Width: 422
VWidth: 0
Flags: W
HStem: -170 36<60 168.486> 443 47<129.976 247.94>
VStem: 273 89<296.433 419.398> 302 90<-16.34 114.744>
LayerCount: 2
Back
Fore
SplineSet
392 74 m 0xd0
 392 -64 259 -170 52 -170 c 0
 60 -134 l 3
 237 -134 302 -27 302 39 c 3xd0
 302 86 278 172 163 172 c 3
 149 172 128 168 128 168 c 1
 128 198 l 1
 156 213 l 2
 253 265 273 322 273 361 c 3
 273 407 246 443 187 443 c 3
 142 443 85 396 68 339 c 1
 63 339 50 340 41 342 c 1
 67 437 l 1
 83 451 153 490 207 490 c 3
 307 490 362 443 362 370 c 3xe0
 362 306 304 229 236 209 c 1
 339 209 392 126 392 74 c 0xd0
EndSplineSet
Validated: 1
EndChar

StartChar: five
Encoding: 53 53 77
Width: 422
VWidth: 0
Flags: W
HStem: -170 36<18 130.484> 403 77<151.554 364> 470 20G<375.75 377.862>
VStem: 260 89<-24.8719 98.8952>
LayerCount: 2
Back
Fore
SplineSet
18 -134 m 7xd0
 195 -134 260 -37.0078125 260 29 c 7
 260 144.017578125 133 162.356445312 40 192 c 9
 116 480 l 17
 314 480 l 2xd0
 367.5 480 369.5 483 382 490 c 9xb0
 364 403 l 25
 174 403 l 18
 152 403 140.00164874 352.954892571 129.267578125 314.809570312 c 2
 113 257 l 1
 186 234.893554688 349 197.014648438 349 64 c 7
 349 -74.0322265625 217 -170 10 -170 c 4
 18 -134 l 7xd0
EndSplineSet
Validated: 1
EndChar

StartChar: six
Encoding: 54 54 78
Width: 466
VWidth: 0
Flags: W
HStem: -10 39<183.668 303.609> 331 39<202.075 306.055>
VStem: 30 94<103.848 335.46> 352 94<88.7176 280.679>
LayerCount: 2
Back
Fore
SplineSet
166 306 m 1
 170 327 l 1
 178 333 217 370 261 370 c 3
 360 370 446 311 446 188 c 3
 446 49 353 -10 224 -10 c 3
 143 -10 30 47 30 216 c 3
 30 442 228 561 330 620 c 9
 368 610 l 17
 246 527 124 452 124 211 c 3
 124 106 169 29 237 29 c 3
 281 29 352 43 352 172 c 3
 352 271 320 331 247 331 c 3
 209 331 178 313 166 306 c 1
EndSplineSet
Validated: 1
EndChar

StartChar: nine
Encoding: 57 57 79
Width: 481
VWidth: 0
Flags: W
HStem: 130 39<174.399 284.164> 451 39<172.518 293.721>
VStem: 30 94<224.001 388.549> 362 94<163.285 371.669>
LayerCount: 2
Back
Fore
SplineSet
310 184 m 1
 306 163 l 1
 298 157 259 130 215 130 c 3
 116 130 30 208 30 292 c 3
 30 448 159 490 252 490 c 3
 333 490 456 433 456 264 c 3
 456 90 254 -92 166 -160 c 9
 108 -170 l 17
 209 -72 362 85 362 269 c 3
 362 374 307 451 239 451 c 3
 195 451 124 437 124 308 c 3
 124 248 156 169 229 169 c 3
 267 169 298 177 310 184 c 1
EndSplineSet
Validated: 1
EndChar

StartChar: parenleft
Encoding: 40 40 80
Width: 315
VWidth: 0
Flags: W
VStem: 40 79<165.742 431.6>
LayerCount: 2
Back
Fore
SplineSet
285 730 m 9
 305 696 l 17
 202 613 119 471 119 307 c 3
 119 146 192 -10 305 -106 c 9
 275 -140 l 17
 206 -95 40 88.9130859375 40 297 c 3
 40 492.576495702 156 627 285 730 c 9
EndSplineSet
Validated: 1
EndChar

StartChar: parenright
Encoding: 41 41 81
Width: 315
VWidth: 0
Flags: W
VStem: 196 79<165.76 432.598>
LayerCount: 2
Back
Fore
SplineSet
30 730 m 17
 159 627 275 493 275 297 c 3
 275 89 109 -95 40 -140 c 9
 10 -106 l 17
 123 -10 196 146 196 307 c 3
 196 471 113 613 10 696 c 9
 30 730 l 17
EndSplineSet
Validated: 1
EndChar

StartChar: slash
Encoding: 47 47 82
Width: 325
VWidth: 0
Flags: MW
HStem: 680 20G<202.5 238>
VStem: 30 65<-53.3686 0.846161>
DStem2: 30 -50 95 -70 0.257663 0.966235<-2.7019 0>
LayerCount: 2
Back
Fore
SplineSet
95 -70 m 1
 72 -65 48 -61 30 -50 c 1
 102 198 175 446 230 700 c 1
 246 692 268 685 295 680 c 1
 234 433 165 182 95 -70 c 1
EndSplineSet
EndChar

StartChar: backslash
Encoding: 92 92 83
Width: 330
VWidth: 0
Flags: MW
HStem: 685 20G<90 131.5>
VStem: 230 70<-48.1083 2.40234>
DStem2: 300 -45 230 -65 0.257663 -0.966235<-774.92 1.93129>
LayerCount: 2
Back
Fore
SplineSet
100 705 m 5
 163 458 230 208 300 -45 c 5
 280 -55 255 -60 230 -65 c 5
 155 181 93 433 30 685 c 5
 55 690 80 695 100 705 c 5
EndSplineSet
EndChar

StartChar: bar
Encoding: 124 124 84
Width: 204
VWidth: 0
Flags: W
HStem: -4 21G<96 107> 630 20G<70 75 128.5 134>
VStem: 70 64<-3.64167 649>
LayerCount: 2
Back
Fore
SplineSet
134 0 m 1
 123 -3 113 -4 101 -4 c 3
 91 -4 81 -3 70 0 c 1
 70 650 l 1
 80 649 90 649 100 649 c 3
 112 649 123 649 134 650 c 1
 134 0 l 1
EndSplineSet
EndChar

StartChar: numbersign
Encoding: 35 35 85
Width: 530
VWidth: 0
Flags: W
HStem: -5 21G<124.715 127 274.603 282> 118 64<50 149 202 299> 288 64<94.4448 189 240 337> 465 20G<264 265.455 409 410.938>
LayerCount: 2
Back
Fore
SplineSet
160 0 m 1
 149 -6 134 -4 120 -5 c 1
 149 118 l 1
 30 115 l 1
 36 137 39 158 50 180 c 1
 164 182 l 1
 189 288 l 1
 75 285 l 1
 81 307 83 330 95 350 c 1
 205 352 l 1
 235 480 l 1
 245 484 258 484 270 485 c 1
 240 353 l 1
 352 356 l 1
 380 480 l 1
 390 486 403 484 415 485 c 1
 389 357 l 1
 500 360 l 1
 497 338 496 312 490 295 c 1
 375 292 l 1
 354 187 l 1
 475 190 l 1
 471 168 476 147 465 125 c 1
 340 122 l 1
 315 0 l 1
 301 -2 294 -3 270 -5 c 1
 299 121 l 1
 187 118 l 1
 160 0 l 1
337 291 m 1
 225 288 l 1
 202 183 l 1
 313 186 l 1
 337 291 l 1
EndSplineSet
EndChar

StartChar: bracketleft
Encoding: 91 91 86
Width: 300
VWidth: 0
Flags: W
HStem: -130 46<145 240.093> 669 46<150 245.409>
VStem: 80 65<-84 669>
LayerCount: 2
Back
Fore
SplineSet
250 719 m 1
 249 703 248 687 245 674 c 1
 212 672 190 671 150 669 c 1
 149 419 147 171 145 -84 c 1
 182 -82 213 -81 245 -79 c 1
 243 -94 242 -109 240 -124 c 1
 189 -129 136 -129 80 -130 c 1
 81 151 81 419 85 715 c 1
 142 717 196 718 250 719 c 1
EndSplineSet
EndChar

StartChar: bracketright
Encoding: 93 93 87
Width: 300
VWidth: 0
Flags: W
HStem: -129 45<54.5236 148.501> 669 45<58.9531 155>
VStem: 150 65<-80.1899 674>
LayerCount: 2
Back
Fore
SplineSet
59 714 m 1
 115 715 167 718 220 720 c 1
 219 438 217 157 215 -125 c 1
 160 -126 105 -128 50 -129 c 1
 53 -112 54 -98 55 -84 c 1
 87 -82 118 -81 150 -79 c 1
 156 172 154 423 155 674 c 1
 121 673 88 672 54 669 c 1
 57 684 58 699 59 714 c 1
EndSplineSet
EndChar

StartChar: greater
Encoding: 62 62 88
Width: 395
VWidth: 0
Flags: W
VStem: 235 110<184.341 238.632>
LayerCount: 2
Back
Fore
SplineSet
65 56 m 1
 65 56 235 185 235 210 c 3
 235 241 75 374 75 374 c 1
 95 410 l 1
 95 410 345 244 345 210 c 3
 345 181 85 20 85 20 c 1
 65 56 l 1
EndSplineSet
Validated: 1
EndChar

StartChar: less
Encoding: 60 60 89
Width: 390
VWidth: 0
Flags: W
VStem: 50 110.11<184.341 238.655>
LayerCount: 2
Back
Fore
SplineSet
330 56 m 1
 310 20 l 1
 310 20 50 181 50 210 c 3
 50 244.131835938 300 410 300 410 c 1
 320 374 l 1
 320 374 160.110351562 241 160.110351562 210 c 3
 160.110351562 185 330 56 330 56 c 1
EndSplineSet
Validated: 1
EndChar

StartChar: eight
Encoding: 56 56 92
Width: 441
VWidth: 0
Flags: W
HStem: -10 39<161.514 283.109> 571 39<168.609 269.301>
VStem: 30 84<78.3525 233.291> 65 79<429.924 545.765> 302 74<416.464 542.022> 322 89<77.9337 209.555>
LayerCount: 2
Back
Fore
SplineSet
190 301 m 1xe4
 145 267 114 227 114 162 c 3
 114 97 149 29 214 29 c 3
 282 29 322 63 322 141 c 3
 322 218 255 258 190 301 c 1xe4
149 329 m 1
 103 364 65 405 65 469 c 3
 65 554 126 610 235 610 c 7
 332 610 376 546 376 487 c 3xd8
 376 435 336 374 274 335 c 1
 342 284 411 228 411 156 c 3
 411 50 308 -10 227 -10 c 3
 104 -10 30 58 30 148 c 3
 30 231 83 289 149 329 c 1
241 360 m 1
 292 393 302 439 302 478 c 3
 302 534 264 571 218 571 c 3
 167 571 144 534 144 484 c 3
 144 439 188 400 241 360 c 1
EndSplineSet
Validated: 1
EndChar

StartChar: asterisk
Encoding: 42 42 93
Width: 371
VWidth: 0
Flags: W
HStem: 524 55<279.003 295.951>
VStem: 154 65<534.777 638>
LayerCount: 2
Back
Fore
SplineSet
116 399 m 1
 116 399 111 398 108 398 c 0
 91 398 78 433 78 433 c 1
 99.591796875 457.212890625 121.76171875 480.236328125 146 499 c 1
 116.591796875 508.051757812 87.76171875 517.61328125 61 529 c 1
 61 529 60 536 60 540 c 0
 60 558 79 582 79 582 c 1
 107.182617188 562.454101562 129.245117188 553 160 538 c 1
 160 576 154.2734375 602.666992188 154 640 c 1
 154 640 161 647 166 647 c 0
 184 647 219 638 219 638 c 1
 213.0859375 601.333007812 207.484375 571.666992188 204 535 c 1
 236.333007812 550.469726562 246.666992188 558.25 279 577 c 1
 279 577 283 579 287 579 c 0
 302 579 311 529 311 529 c 1
 277.666992188 515.666992188 244.333007812 505 211 497 c 1
 231.333007812 473 252.333007812 450.333007812 274 429 c 1
 274 429 276 423 276 418 c 0
 276 401 236 391 236 391 c 1
 210.98046875 418.666992188 198.430664062 446.333007812 179 474 c 1
 151.728515625 450.499023438 138.063476562 425.158203125 116 399 c 1
EndSplineSet
Validated: 1
EndChar

StartChar: percent
Encoding: 37 37 94
Width: 695
VWidth: 0
Flags: MW
HStem: -10 39<472.583 567.677> 236 39<471.914 566.472> 325 39<132.583 227.677> 571 39<131.914 226.694>
VStem: 30 77<389.665 534.09> 248 77<387.904 542.912> 370 77<54.665 199.09> 588 77<52.9035 207.912>
DStem2: 110 -5 175 0 0.551514 0.834165<29.5024 734.741>
LayerCount: 2
Back
Fore
SplineSet
518 236 m 3
 461 236 447 181 447 133 c 3
 447 93 460 29 517 29 c 3
 581 29 588 78 588 133 c 3
 588 176 585 236 518 236 c 3
370 127 m 3
 370 206 446 275 520 275 c 3
 608 275 665 204 665 139 c 3
 665 39 602 -10 514 -10 c 3
 406 -10 370 80 370 127 c 3
178 571 m 3
 121 571 107 516 107 468 c 3
 107 428 120 364 177 364 c 3
 241 364 248 413 248 468 c 3
 248 511 246 571 178 571 c 3
30 462 m 3
 30 541 106 610 180 610 c 3
 268 610 325 539 325 474 c 3
 325 374 262 325 174 325 c 3
 66 325 30 415 30 462 c 3
175 0 m 5
 156 -2 135 -4 110 -5 c 5
 253 210 379 380 510 600 c 5
 533 601 554 603 575 605 c 5
 433 376 309 204 175 0 c 5
EndSplineSet
EndChar

StartChar: degree
Encoding: 176 176 95
Width: 395
VWidth: 0
Flags: W
HStem: 440 39<159.504 234.869> 646 39<157.657 238.812>
VStem: 70 67<499.789 626.098> 258 67<500.157 629.952>
LayerCount: 2
Back
Fore
SplineSet
198 646 m 7
 158 646 137 605.013671875 137 568 c 7
 137 527.971679688 158 479 197 479 c 7
 228 479 258 512.81640625 258 568 c 7
 258 611.002929688 238 646 198 646 c 7
70 562 m 7
 70 619 126.493164062 685 200 685 c 7
 288 685 325 615 325 574 c 7
 325 490.513671875 272 440 194 440 c 7
 104 440 70 514.93359375 70 562 c 7
EndSplineSet
Validated: 1
EndChar

StartChar: at
Encoding: 64 64 96
Width: 657
VWidth: 0
Flags: W
HStem: -60 39<247.43 445> 80 56<286.051 360.382 422.49 528.312> 301 46<306.551 374> 441 39<261.919 443.596>
VStem: 40 76<106.386 307.028> 194 84<141.93 271.268> 374 76<144.91 301> 551 66<160.011 323.99>
LayerCount: 2
Back
Fore
SplineSet
278 200 m 3
 278 153 293.262 136 324 136 c 27
 348.492 136 363 149 374 174 c 9
 374 301 l 17
 319 301 278 277 278 200 c 3
437 80 m 3
 407.979 80 381 97 381 129 c 1
 362 95 336 80 310 80 c 3
 270.987 80 194 114 194 188 c 3
 194 293 261 346 449 347 c 9
 450 194 l 18
 450.092 180 453 135 472 135 c 3
 497.318 135 551 151 551 219 c 3
 551 303 510.03 441 360 441 c 7
 226.996 441 116 353.029 116 202 c 3
 116 65.8682 225.98 -21 329 -21 c 3
 411.72 -21 461.252 -1.45801 509 36 c 9
 533 6 l 17
 482.153 -43.1074 408.758 -60 326 -60 c 3
 184.968 -60 40 41 40 195 c 3
 40 367 170.956 480 352 480 c 7
 485.034 480 617 388.045 617 212 c 3
 617 123.994 523.093 80 437 80 c 3
EndSplineSet
Validated: 1
EndChar

StartChar: dollar
Encoding: 36 36 97
Width: 526
VWidth: 0
Flags: HW
HStem: -10 36<202.361 330.255> 624 36<207.253 345.619>
VStem: 50 33<161.868 197.095> 68 88<442.154 560.599> 265 45<507.812 710.427> 388 88<79.8927 214.179> 424 33<470.609 523.45>
LayerCount: 2
Back
Fore
SplineSet
270 -65 m 1xc8
 255 -67 240 -68 225 -70 c 1
 244 188 252 450 265 710 c 1
 281 711 297 712 310 715 c 1
 296 455 289 195 270 -65 c 1xc8
EndSplineSet
Refer: 49 83 N 1 0 0 1 0 0 2
EndChar

StartChar: grave
Encoding: 96 96 98
Width: 500
VWidth: 0
Flags: W
HStem: 431 155
VStem: 140 230
LayerCount: 2
Back
Fore
SplineSet
145 550 m 1
 230 586 l 1
 230 551 342 472 370 456 c 9
 340 431 l 17
 276 461 194 480 140 535 c 1
 145 550 l 1
EndSplineSet
Validated: 1
EndChar

StartChar: asciicircum
Encoding: 94 94 99
Width: 500
VWidth: 0
Flags: W
HStem: 441 155
VStem: 220 60<558.408 596>
LayerCount: 2
Back
Fore
SplineSet
250 514 m 1
 209 481 170 465 120 441 c 1
 90 466 l 1
 118 482 220 561 220 596 c 1
 280 596 l 1
 280 561 382 482 410 466 c 1
 380 441 l 1
 330 465 291 481 250 514 c 1
EndSplineSet
Validated: 1
EndChar

StartChar: acute
Encoding: 180 180 102
Width: 500
VWidth: 0
Flags: W
HStem: 431 155
VStem: 130 230
LayerCount: 2
Back
Fore
SplineSet
355 550 m 5
 360 535 l 5
 306 480 224 461 160 431 c 13
 130 456 l 21
 158 472 270 551 270 586 c 5
 355 550 l 5
EndSplineSet
Validated: 1
EndChar

StartChar: cent
Encoding: 162 162 145
Width: 443
VWidth: 0
Flags: W
HStem: -10 39<210.36 340.138> 391 39<191.174 301.325>
VStem: 35 97<119.979 307.25> 220 55<-107.375 109.93> 230 55<313.747 530.375>
LayerCount: 2
Back
Fore
SplineSet
275 -107 m 1xf0
 257 -108 238 -109 220 -110 c 1xf0
 225 103 229 317 230 530 c 1
 248 531 267 532 285 533 c 1xe8
 281 321 278 107 275 -107 c 1xf0
EndSplineSet
Refer: 21 99 N 1 0 0 1 0 0 2
Validated: 5
EndChar

StartChar: brokenbar
Encoding: 166 166 146
Width: 190
VWidth: 0
Flags: W
HStem: -5 21G<83 93.5> 630 20G<64.5 70 124 129.5>
VStem: 63 65<-3.24297 277 369.041 649>
LayerCount: 2
Back
Fore
SplineSet
128 370 m 1
 117 369 106 369 94 369 c 3
 84 369 74 369 63 370 c 1
 64 465 64 558 65 650 c 1
 75 649 84 649 92 649 c 3
 106 649 118 650 130 650 c 1
 129 548 129 453 128 370 c 1
125 0 m 1
 113 -2 100 -5 87 -5 c 3
 79 -5 70 -4 60 0 c 1
 61 93 61 187 62 280 c 1
 71 278 80 277 88 277 c 3
 101 277 114 279 127 280 c 1
 126 187 127 96 125 0 c 1
EndSplineSet
Validated: 1
EndChar

StartChar: periodcentered
Encoding: 183 183 149
Width: 260
VWidth: 0
Flags: W
HStem: 157 92<83.5156 166.048>
VStem: 80 90<160.217 245.503>
LayerCount: 2
Back
Fore
SplineSet
125 249 m 27
 150 249 170 242 170 203 c 3
 170 160 150 157 125 157 c 27
 100 157 80 162 80 203 c 3
 80 244.012 100 249 125 249 c 27
EndSplineSet
EndChar

StartChar: cedilla
Encoding: 184 184 150
Width: 260
VWidth: 0
Flags: W
HStem: -195 15<72.6667 86.6526> -46 56<99 131.598>
VStem: 99 61<-11.7778 10> 150 60<-125.01 -65.5332>
LayerCount: 2
Back
Fore
SplineSet
150 -95 m 3xd0
 150 -69.974609375 98.7734375 -46.0625 81 -46 c 9
 99 10 l 25
 160 10 l 1xe0
 150 -30 l 1
 169 -30 210 -59 210 -85 c 3
 210 -127 111 -189 75 -195 c 1
 70 -180 l 1
 101 -171 150 -132.013671875 150 -95 c 3xd0
EndSplineSet
Validated: 1
EndChar

StartChar: asciitilde
Encoding: 126 126 153
Width: 500
VWidth: 0
Flags: W
HStem: 170 65<266.225 366.558> 225 65<130.431 229.643>
LayerCount: 2
Back
Fore
SplineSet
80 170 m 9x80
 60 190 l 17
 82 226 129 290 195 290 c 27x40
 248 290 267 235 320 235 c 31
 367 235 394 264 420 300 c 9
 440 280 l 17
 408 222 366 170 295 170 c 27x80
 245 170 230 225 180 225 c 27x40
 135 225 102 206 80 170 c 9x80
EndSplineSet
Validated: 1
EndChar

StartChar: uni00AD
Encoding: 173 173 157
Width: 400
VWidth: 0
Flags: W
HStem: 200 55<79.7244 300.46>
VStem: 70 240
LayerCount: 2
Back
Fore
SplineSet
300 205 m 1
 217 205 153 205 70 200 c 1
 76 216 77 236 80 255 c 1
 161 259 226 259 310 260 c 1
 307 241 305 219 300 205 c 1
EndSplineSet
Validated: 1
EndChar

StartChar: macron
Encoding: 175 175 158
Width: 500
VWidth: 0
Flags: W
HStem: 490 60<105 395.363>
VStem: 100 300
LayerCount: 2
Back
Fore
SplineSet
395 495 m 1
 301 492 198 492 100 490 c 1
 101 505 105 527 105 550 c 1
 203 552 302 550 400 555 c 1
 399 535 399 515 395 495 c 1
EndSplineSet
Validated: 1
EndChar

StartChar: plusminus
Encoding: 177 177 164
Width: 425
VWidth: 0
Flags: W
HStem: 0 45<69.7244 350.684> 203 50<69.7244 191 242 355.287>
VStem: 192 50<75 203 253 375.449>
LayerCount: 2
Back
Fore
SplineSet
350 5 m 1
 267 5 143 5 60 0 c 1
 66 16 67 26 70 45 c 1
 151 49 276 49 360 50 c 1
 357 31 355 19 350 5 c 1
EndSplineSet
Refer: 73 43 N 1 0 0 1 0 0 2
Validated: 1
EndChar

StartChar: logicalnot
Encoding: 172 172 165
Width: 450
VWidth: 0
Flags: W
HStem: 240 65<59.4342 277.595> 250 60<106.779 330>
VStem: 325 60<129.725 250>
LayerCount: 2
Back
Fore
SplineSet
330 250 m 1x60
 237 246 143 242 50 240 c 1
 56 262 58 283 60 305 c 1xa0
 170 306 282 306 390 310 c 1
 388 250 388 190 385 130 c 1
 368 127 347 126 325 125 c 1
 330 163 328 210 330 250 c 1x60
EndSplineSet
Validated: 1
EndChar

StartChar: multiply
Encoding: 215 215 167
Width: 415
VWidth: 0
Flags: W
HStem: 50 320
VStem: 50 315
LayerCount: 2
Back
Fore
SplineSet
95 50 m 1
 81 64 69 78 50 95 c 1
 89 133 127 174 165 212 c 5
 127 251 88 287 50 325 c 1
 65 338 80 354 95 370 c 1
 134 332 172 293 210 255 c 1
 247 293 284 331 320 370 c 1
 335 355 351 341 365 324 c 1
 329 286 293 250 255 212 c 1
 292 174 328 134 365 96 c 1
 351 81 335 65 320 50 c 1
 283 88 247 129 210 167 c 1
 172 129 134 88 95 50 c 1
EndSplineSet
Validated: 1
EndChar

StartChar: ampersand
Encoding: 38 38 169
Width: 730
VWidth: 0
Flags: W
HStem: -10 69<189.836 349.042> 0 39<602.376 680.837> 394 26<559.517 600.874> 630 30<251.115 329.111>
VStem: 25 97<127.751 264.808> 145 80<492.184 598.425> 365 60<488.311 603.974>
LayerCount: 2
Back
Fore
SplineSet
641 368 m 2xbe
 641 368 558 200 511 145 c 9
 511 145 596 39 648 39 c 3
 676 39 710 65 710 65 c 25
 710 38 l 25
 710 38 661 0 621 0 c 3x7e
 541 0 501 45 459 90 c 1
 401 24 330 -10 225 -10 c 3
 113 -10 25 64 25 180 c 3
 25 317 178 387 214 405 c 9
 214 405 145 483 145 540 c 3
 145 607 223 660 290 660 c 3
 388 660 425 603 425 550 c 3
 425 477 338 427 310 415 c 1
 378 324 459 214 485 176 c 1
 524 217 611 368 611 368 c 3
 611 387 568 389 563 394 c 1
 560 397 559 394 559 420 c 1
 710 420 l 1
 710 407 708 404 704 400 c 1
 691 387 650 389 641 368 c 2xbe
235 380 m 1
 207 365 122 317 122 210 c 3
 122 101 205 59 265 59 c 3xbe
 326 59 387 75 434 125 c 1
 397 174 322 278 235 380 c 1
225 550 m 3
 225 514 263 464 290 440 c 1
 330 462 365 491 365 550 c 3
 365 592 328 630 290 630 c 3
 238 630 225 579 225 550 c 3
EndSplineSet
Validated: 1
EndChar

StartChar: braceleft
Encoding: 123 123 170
Width: 330
VWidth: 0
Flags: W
HStem: -140 24<258.697 295> 686 24<263.908 300>
VStem: 60 240
LayerCount: 2
Back
Fore
SplineSet
295 -140 m 21
 15 -140 214 241 60 287 c 5
 212 349 22 710 300 710 c 13
 300 686 l 21
 125 686 247 301 154 287 c 5
 246 265 132 -116 295 -116 c 13
 295 -140 l 21
EndSplineSet
Validated: 1
EndChar

StartChar: braceright
Encoding: 125 125 171
Width: 320
VWidth: 0
Flags: W
HStem: -140 24<20 56.3352> 686 24<25 61.0603>
VStem: 20 240
LayerCount: 2
Back
Fore
SplineSet
20 -140 m 9
 20 -116 l 17
 183 -116 74 265 166 287 c 1
 73 301 200 686 25 686 c 9
 25 710 l 17
 303 710 108 349 260 287 c 1
 106 241 300 -140 20 -140 c 9
EndSplineSet
Validated: 1
EndChar

StartChar: yen
Encoding: 165 165 172
Width: 622
VWidth: 0
Flags: W
HStem: -4 21<192 205.5 416.5 427> 181 55<159.724 460.193> 274 55<169.812 470.46> 630 20<5 255 414 617>
VStem: 263 92<39.8081 297>
LayerCount: 2
Back
Fore
SplineSet
460 186 m 1
 363 184 244 186 150 181 c 1
 156 199 157 218 160 236 c 1
 254 239 373 239 470 241 c 1
 466 223 462 204 460 186 c 1
470 279 m 1
 373 277 254 277 160 274 c 1
 166 291 168 310 170 329 c 1
 267 333 383 332 480 334 c 1
 477 316 475 297 470 279 c 1
EndSplineSet
Refer: 56 89 N 1 0 0 1 0 0 2
Validated: 5
EndChar

StartChar: Oslash
Encoding: 216 216 173
Width: 719
VWidth: 0
Flags: HW
HStem: -10 42<290.148 470.367> 619 41<265.866 440.626> 680 20G<538.267 593.333>
VStem: 40 103<202.589 449.026> 586 103<186.044 448.246>
LayerCount: 2
Back
Fore
SplineSet
175 -80 m 29
 110 -50 l 29
 550 700 l 29
 615 670 l 29
 175 -80 l 29
EndSplineSet
Refer: 32 79 S 1 0 0 1 0 0 2
EndChar

StartChar: oslash
Encoding: 248 248 174
Width: 495
VWidth: 0
Flags: HW
HStem: -10 39<204.57 318.415> 391 39<186.176 302.907> 470 20G<368.148 410>
VStem: 35 97<113.561 303.635> 373 97<106.322 307.432>
LayerCount: 2
Back
Fore
SplineSet
105 -80 m 25
 60 -50 l 25
 380 490 l 29
 425 460 l 29
 105 -80 l 25
EndSplineSet
Refer: 12 111 S 1 0 0 1 0 0 2
EndChar

StartChar: thorn
Encoding: 254 254 175
Width: 549
VWidth: 0
Flags: W
HStem: -274 30<198.725 255.182> -10 39<231.937 362.869> 391 39<238.709 347.386> 619 28<47 93.5454> 686 20G<179.5 195.219>
VStem: 105 86<-234.586 46 57.5957 356.609 364 612.543> 417 97<106.322 307.432>
LayerCount: 2
Back
Fore
SplineSet
105 570 m 6
 105 610 82 619 47 619 c 13
 47 647 l 21
 78 647 162 677 197 706 c 5
 193.4375 689.078125 191 669 191 633 c 5
 191 629 191 368.922013793 191 364 c 1
 220 403 257 430 300 430 c 3
 433 430 514 332 514 214 c 3
 514 67 423 -10 294 -10 c 3
 256 -10 219 12 191 46 c 1
 191 -218 l 2
 191 -238 246 -238 252 -244 c 0
 255 -247 256 -248 256 -274 c 1
 232 -271 185 -270 144 -270 c 0
 103 -270 70 -271 40 -274 c 1
 40 -261 42 -255 46 -251 c 0
 59 -238 105 -242 105 -218 c 2
 105 570 l 6
191 325 m 1
 191 87 l 1
 209 51 243 29 306 29 c 3
 357 29 417 70 417 188 c 3
 417 287 382 391 287 391 c 3
 245 391 212 365 191 325 c 1
EndSplineSet
Validated: 1
EndChar

StartChar: Thorn
Encoding: 222 222 176
Width: 577
VWidth: 0
Flags: W
HStem: -4 28<207.249 281.182> 138 48<198 360.468> 473 47<198.271 360.907> 626 24<210.258 269.318>
VStem: 105 93<33.8841 138 186 471.42 520 617.045> 442 95<253.762 399.348>
LayerCount: 2
Back
Fore
SplineSet
198 520 m 29
 315 520 l 6
 463 520 537 412 537 349 c 7
 537 224 476 138 277 138 c 6
 198 138 l 5
 198 47 l 2
 198 29 273 29 278 24 c 0
 281 21 282 19 282 -4 c 1
 260 -1 183 0 146 0 c 0
 109 0 72 -1 45 -4 c 1
 45 8 47 14 51 18 c 0
 63 30 105 26 105 47 c 2
 105 603 l 2
 105 624 53 620 41 632 c 0
 37 636 35 638 35 650 c 1
 270 650 l 1
 270 626 268 628 266 626 c 0
 261 621 198 621 198 603 c 2
 198 520 l 29
268 473 m 6
 229 473 l 6
 222 473 198 467 198 448 c 6
 198 186 l 5
 254 186 l 6
 354 186 442 230 442 325 c 7
 442 389 396 473 268 473 c 6
EndSplineSet
Validated: 1
EndChar

StartChar: germandbls
Encoding: 223 223 177
Width: 541
VWidth: 0
Flags: W
HStem: -10 36<262.664 353.716> 666 39<219.571 313.909>
VStem: 91 85<32.8653 580.163> 227 60<26.1824 53.9531> 352 89<444.428 618.371> 422 89<98.9208 259.728>
LayerCount: 2
Back
Fore
SplineSet
176 0 m 17xf8
 176 0 56 -1 26 -4 c 1
 26 9 28 16 32 20 c 0
 45 33 91 28 91 52 c 2
 91 455 l 2
 91 639 195 705 268 705 c 3
 371 705 441 627 441 535 c 3xf8
 441 447 412 409 335 369 c 1
 438 369 511 264 511 194 c 3
 511 66 412 -10 292 -10 c 3
 235 -10 227 22 227 39 c 3
 227 60 269 78 287 78 c 1
 287 59 291 26 300 26 c 3
 368 26 422 100 422 179 c 3xf4
 422 292 328 332 262 332 c 3
 248 332 227 328 227 328 c 1
 227 358 l 1
 255 373 l 2
 329 413 352 474 352 526 c 3
 352 570 340 666 264 666 c 3
 207 666 176 607 176 455 c 2
 176 0 l 17xf8
EndSplineSet
Validated: 1
EndChar

StartChar: AE
Encoding: 198 198 178
Width: 951
VWidth: 0
Flags: W
HStem: -4 28<148.371 222.384> 0 47<528.16 825.366> 236 48<270 435> 313 48<528 729.718> 408 20G<767 780.436> 603 47<528.271 809.887>
VStem: 435 93<48.9409 236 284 313 361 582.218> 742 16<239 271.421>
LayerCount: 2
Back
Fore
SplineSet
435 284 m 1x3f
 435 583 l 1
 270 284 l 1
 435 284 l 1x3f
435 236 m 1
 243 236 l 1
 139 47 l 3x7f
 139 29 215 29 220 24 c 0
 222 22 223 20 223 -4 c 1xbf
 202 0 140 0 103 0 c 3x7f
 66 0 32 0 5 -4 c 1xbf
 5 8 7 14 11 18 c 0
 23 30 66 27 74 47 c 2
 383 608 l 2
 396 633 409 650 457 650 c 2
 878 650 l 1
 853 522 l 1
 835 528 l 1
 835 528 830 603 754 603 c 2
 559 603 l 2
 552 603 528 597 528 578 c 2
 528 361 l 1
 708 361 l 2
 752 361 739 391 767 422 c 1
 783 428 l 1
 758 233 l 1
 742 239 l 1
 729 263 740 313 706 313 c 2
 528 313 l 1
 528 71 l 2
 528 53 553 47 560 47 c 2
 766 47 l 2
 850 47 884 156 884 156 c 1
 901 150 l 1
 879 0 l 1
 482 0 l 2x7f
 444 0 402 0 375 -4 c 1xbf
 375 8 377 14 381 18 c 0
 393 30 435 26 435 47 c 2x7f
 435 236 l 1
EndSplineSet
Validated: 1
EndChar

StartChar: ae
Encoding: 230 230 179
Width: 679
VWidth: 0
Flags: W
HStem: -10 56<137.732 255.336> -10 39<436.881 566.133> 222 43<385 523.462> 235 30<502.538 578> 381 49<159.964 270.468> 391 39<432.513 538.455>
VStem: 40 84<59.5496 154.736> 53 91<280.38 360.621> 280 105<265 338.092> 280 97<101.556 221> 578 71<265 333.155>
LayerCount: 2
Back
Fore
SplineSet
124 110 m 3x8260
 124 63 154 46 190 46 c 3
 229 46 259 63 280 84 c 1
 280 221 l 1
 231 187 124 187 124 110 c 3x8260
484 430 m 3x05a0
 561 430 649 364 649 235 c 1x15a0
 377 222 l 5
 377 121 414 29 490 29 c 3
 541 29 589 53 620 93 c 1
 640 81 l 1
 607 20 556 -10 478 -10 c 3x6160
 405 -10 353 14 321 55 c 1
 282 21 224 -10 176 -10 c 3
 102 -10 40 24 40 98 c 3
 40 203 196 211 280 260 c 1x8260
 280 315 l 2
 280 362 260 381 230 381 c 3
 159 381 153 353 144 326 c 0
 135 301 130 274 105 274 c 3
 81 274 53 283 53 307 c 3
 53 332 63 352 79 365 c 0
 96 379 156 430 242 430 c 3x89a0
 301 430 334 418 351 383 c 1
 390 417 439 430 484 430 c 3x05a0
578 265 m 1
 578 331 547 391 486 391 c 3
 447 391 397 364 385 265 c 1x24a0
 578 265 l 1
EndSplineSet
Validated: 1
EndChar

StartChar: ordmasculine
Encoding: 186 186 180
Width: 275
VWidth: 0
Flags: W
HStem: 420 29<109.33 174.834> 631 29<102.15 176.217>
VStem: 20 57<475.225 606.879> 198 57<469.436 617.3>
LayerCount: 2
Back
Fore
SplineSet
138 631 m 3
 98 631 77 593.012498047 77 553 c 3
 77 497.990909842 103 449 142 449 c 3
 173 449 198 475 198 543 c 3
 198 605.032226562 178 631 138 631 c 3
20 542 m 3
 20 599 71.4931640625 660 145 660 c 3
 215.0285656 660 255 607.08483776 255 554 c 3
 255 470.513671875 212 420 134 420 c 3
 44 420 20 494.93359375 20 542 c 3
EndSplineSet
Validated: 1
EndChar

StartChar: ordfeminine
Encoding: 170 170 181
Width: 257
VWidth: 0
Flags: W
HStem: 420 35<60.7058 131.955 176.5 222.717> 629 31<74.0878 137.548>
VStem: 10 49<455.834 518.415> 16 54<578.968 625.669> 141 51<460.212 547 562.542 627.328>
LayerCount: 2
Back
Fore
SplineSet
59 483 m 3xe8
 59 458 75 455 94 455 c 27
 115 455 130 464 141 475 c 13
 141 547 l 17
 115 529 59 524 59 483 c 3xe8
192 584 m 10
 192 480 l 18
 192 473 193 460 203 460 c 11
 215 460 222 464 228 476 c 9
 237 461 l 17
 225 435 211 420 185 420 c 27
 168 420 145 429 145 446 c 1
 124 431 100 420 86 420 c 3
 47 420 10 438 10 477 c 3xe8
 10 532 97 547 141 573 c 9
 141 600 l 26
 141 618 131 629 115 629 c 3
 78 629 75 619 70 605 c 0
 65 592 62 578 49 578 c 27
 36 578 16 582 16 595 c 27xd8
 16 608 22 619 30 626 c 0
 39 633 76 660 121 660 c 3
 172 660 192 642 192 584 c 10
EndSplineSet
Validated: 1
EndChar

StartChar: uni00B9
Encoding: 185 185 182
Width: 170
VWidth: 0
Flags: W
HStem: 428 17<20.335 50.0692> 609 15<20 44>
VStem: 65 42<453.717 606.999>
LayerCount: 2
Back
Fore
SplineSet
20 609 m 1
 20 624 l 1
 36 624 76 633 113 665 c 1
 110 648 107 620 107 581 c 2
 107 472 l 18
 107 454 141 452 146 447 c 0
 149 444 150 437 150 428 c 1
 141 430 122 430 85 430 c 3
 48 430 30 430 20 428 c 1
 20 437 20 443 24 445 c 0
 32 449 65 451 65 472 c 10
 65 558 l 18
 65 584 62 605 44 607 c 10
 20 609 l 1
EndSplineSet
Validated: 1
EndChar

StartChar: uni00B2
Encoding: 178 178 183
Width: 210
VWidth: 0
Flags: W
HStem: 430 37<83 174.802> 629 26<58.2562 108.29>
VStem: 114 50<540.801 627.623> 175 15<475.459 484.774>
LayerCount: 2
Back
Fore
SplineSet
164 600 m 3
 164 570 135 516 83 467 c 9
 133 467 l 2
 152 467 171 472 175 485 c 1
 178 485 184 485 190 484 c 1
 181 437 l 1
 170 432 147 430 118 430 c 2
 10 430 l 17
 84 511 114 552 114 596 c 3
 114 614 104 629 82 629 c 3
 67 629 55 619 45 590 c 1
 42 590 25 590 20 592 c 1
 29 632 l 1
 40 641 54 655 92 655 c 3
 126 655 164 636 164 600 c 3
EndSplineSet
Validated: 1
EndChar

StartChar: uni00B3
Encoding: 179 179 184
Width: 183
VWidth: 0
Flags: W
HStem: 425 29<32.6475 108.974> 528 26<64 73> 625 30<38.1181 105.269>
VStem: 10 20<461.385 473.737 601.783 613.188> 107 44<561.613 623.811> 115 48<456.891 524.965>
LayerCount: 2
Back
Fore
SplineSet
151 610 m 3xf8
 151 582 129 554 109 550 c 1
 135 547 163 532 163 498 c 3
 163 445 127 425 69 425 c 3
 58 425 22 431 16 434 c 1
 10 473 l 1
 14 474 27 474 30 474 c 1
 35 456 61 454 72 454 c 3
 98 454 115 459 115 493 c 3xf4
 115 528 91 526 75 527 c 2
 64 528 l 1
 64 554 l 1
 73 556 l 2
 99 562 107 585 107 602 c 3
 107 622 92 625 73 625 c 3
 59 625 37 621 35 601 c 1
 33 601 19 601 16 602 c 1
 20 638 l 1
 25 642 46 655 80 655 c 3
 112 655 151 641 151 610 c 3xf8
EndSplineSet
Validated: 1
EndChar

StartChar: sterling
Encoding: 163 163 185
Width: 556
VWidth: 0
Flags: W
HStem: -11 67<250.475 420.555> 30 69<171 223.678> 270 50<47.3193 118 211 365.52> 602 59<279.702 394.677>
LayerCount: 2
Back
Fore
SplineSet
171 99 m 1x70
 216 99 277 56 347 56 c 3
 430 56 475 94 488 127 c 1
 521 117 l 1
 505 80 451 -11 325 -11 c 3xb0
 266 -11 170 30 129 30 c 3
 88 30 45 -7 15 -10 c 1
 15 3 17 10 21 14 c 0
 34 27 78 46 90 112 c 2
 118 270 l 1
 90 270 l 2
 58 270 47 267 29 264 c 1
 29 286 35 311 59 320 c 1
 126 320 l 1
 150 455 l 2
 183 639 314 661 387 661 c 3
 444 661 499 606 499 589 c 3
 499 568 445 543 427 543 c 1
 391 587 384 602 323 602 c 3
 283 602 254 562 235 455 c 2
 211 320 l 1
 391 320 l 1
 365 264 l 1
 359 265 271 270 236 270 c 2
 202 270 l 1
 171 99 l 1x70
EndSplineSet
Validated: 1
EndChar

StartChar: paragraph
Encoding: 182 182 186
Width: 527
VWidth: 0
Flags: W
HStem: -4 28<190.818 255.977> 634 16G<146 326 473.5 487>
VStem: 25 301<370.21 553.706> 264 62<33.1309 268> 365 62<29.4214 620.579>
LayerCount: 2
Back
Fore
SplineSet
365 0 m 1xc8
 365 650 l 17
 402 650 460 650 487 654 c 1
 487 642 485 636 481 632 c 0
 469 620 427 624 427 603 c 2
 427 47 l 2
 427 26 469 30 481 18 c 0
 485 14 487 8 487 -4 c 1
 460 -1 402 0 365 0 c 1xc8
326 650 m 17xd8
 326 0 l 1
 289 0 212 -1 190 -4 c 5
 190 19 191 21 194 24 c 4
 199 29 264 29 264 47 c 2
 264 268 l 1xd8
 245 268 l 2
 88 268 25 354 25 479 c 3xe8
 25 542 85 650 207 650 c 2
 326 650 l 17xd8
EndSplineSet
Validated: 1
EndChar

StartChar: section
Encoding: 167 167 187
Width: 450
VWidth: 0
Flags: W
HStem: -200 37<185.741 309.482> 583 37<139.229 249.575>
VStem: 52 53<235.456 344.248 454.171 546.764> 357 53<-115.59 -23.1084 99.8348 195.296>
LayerCount: 2
Back
Fore
SplineSet
365 66 m 1
 391 38 410 4 410 -36 c 3
 410 -135 329 -200 212 -200 c 3
 131 -200 40 -135 40 -118 c 0
 40 -97 94 -72 112 -72 c 1
 148 -116 185 -163 246 -163 c 3
 320 -163 357 -109 357 -71 c 3
 357 -7 238 44 211 62 c 0
 192 75 52 147 52 251 c 3
 52 295 65 339 93 374 c 1
 70 402 52 434 52 471 c 3
 52 564 134 620 222 620 c 3
 321 620 384 565 384 548 c 0
 384 527 330 502 312 502 c 1
 276 546 249 583 188 583 c 3
 150 583 105 554 105 506 c 3
 105 441 213 387 247 369 c 0
 281 351 410 289 410 184 c 3
 410 141 394 100 365 66 c 1
120 346 m 1
 110 326 105 305 105 286 c 3
 105 221 213 167 247 149 c 0
 264 140 303 121 339 91 c 1
 352 112 357 134 357 149 c 3
 357 213 238 264 211 282 c 0
 201 289 159 311 120 346 c 1
EndSplineSet
Validated: 1
EndChar

StartChar: mu
Encoding: 181 181 188
Width: 546
VWidth: 0
Flags: W
HStem: -10 59<161.155 280.273> -10 39<410.461 484.122> 400 20G<50 136 312 398>
VStem: 30 96<-233.078 11.6617> 50 86<75.1612 420> 50 54.3066<-174.481 17.3516> 312 86<72.4861 420> 506 20<65.2189 85.2>
LayerCount: 2
Back
Fore
SplineSet
312 420 m 5xab
 398 420 l 5
 398 173 l 6
 398 72 398 29 446 29 c 7
 479 29 496 54 506 93 c 5
 526 81 l 5
 516 32 480 -10 432 -10 c 7x6b
 390.76171875 -10 354.208007812 7.958984375 332.584960938 50.2177734375 c 5
 289.909179688 11.2216796875 250.48828125 -10 188 -10 c 7
 154.633789062 -10 126.385742188 -0.0654296875 104.306640625 17.3515625 c 5xa7
 106.96484375 -105.022460938 126 -163.815429688 126 -188 c 7
 126 -209.283203125 108 -244 77 -244 c 7
 45 -244 30 -202.788085938 30 -188 c 7xb3
 30 -172 50 -97 50 45 c 6xa7
 50 420 l 5
 136 420 l 5
 136 133 l 6
 136 99 160 49 214 49 c 7
 250 49 275 58 312 87 c 5
 312 420 l 5xab
EndSplineSet
EndChar

StartChar: fraction
Encoding: 8260 8260 192
Width: 70
VWidth: 0
Flags: W
LayerCount: 2
Back
Fore
SplineSet
-130 38 m 13
 -160 60 l 21
 -21.841796875 249.3359375 55 387 190 590 c 13
 220 568 l 21
 89 372 7.912109375 227.583007812 -130 38 c 13
EndSplineSet
Validated: 1
EndChar

StartChar: uni2074
Encoding: 8308 8308 196
Width: 221
VWidth: 0
Flags: W
HStem: 431 21G<114 155> 470 31<66 116 153 193.66> 640 20G<120 154.5>
VStem: 116 37<431.329 470 501 585>
LayerCount: 2
Back
Fore
SplineSet
116 585 m 1
 89 552 88 534 66 501 c 1
 116 501 l 1
 116 585 l 1
201 508 m 5
 194 475 l 5
 187 472 164 470 151 470 c 5
 151 446 153 438 155 431 c 1
 114 431 l 1
 116 437 118 451 118 470 c 1
 10 470 l 1
 50 533 76 586 120 645 c 1
 155 660 l 1
 154 651 153 647 153 634 c 2
 153 501 l 5
 174 501 188 502 201 508 c 5
EndSplineSet
Validated: 1
EndChar

StartChar: copyright
Encoding: 169 169 198
Width: 822
Flags: W
HStem: -40 41<294.728 529.47> 103 37<367.438 533.851> 496 36<356.508 498.448> 634 41<295.342 524.173>
VStem: 50 53<193.473 442.725> 207 81<225.485 413.384> 719 53<195.178 444.53>
LayerCount: 2
Back
Fore
SplineSet
522 461 m 1
 487 494 446 496 406 496 c 3
 352 496 288 431 288 326 c 3
 288 223 348 140 429 140 c 3
 484 140 528 150 563 174 c 9
 571 141 l 17
 531 111 479 103 421 103 c 3
 289 103 207 186 207 310 c 3
 207 444 297 532 413 532 c 3
 477 532 521 518 564 502 c 1
 548 410 l 1
 538 414 l 1
 522 461 l 1
411 675 m 3
 623 675 772 540 772 321 c 3
 772 114 633 -40 411 -40 c 3
 187 -40 50 115 50 321 c 3
 50 531 208 675 411 675 c 3
411 1 m 3
 639 1 719 177 719 321 c 3
 719 556 537 634 411 634 c 3
 238 634 103 517 103 321 c 3
 103 78 281 1 411 1 c 3
EndSplineSet
Validated: 1
EndChar

StartChar: registered
Encoding: 174 174 199
Width: 428
Flags: W
HStem: 340 21<154.824 274.315> 421 6<196.379 201.885 303.473 317> 510 18<177 196.108> 612 22<177 235.466> 684 21<154.982 271.626>
VStem: 30 27<452.649 592.228> 144 33<430.375 510 528 611.933> 254 32<541.943 598.991> 371 27<454.287 591.37>
LayerCount: 2
Back
Fore
SplineSet
214 361 m 3
 330 361 371 451 371 524 c 3
 371 644 278 684 214 684 c 3
 126 684 57 624 57 524 c 3
 57 400 148 361 214 361 c 3
214 705 m 3
 322 705 398 636 398 524 c 3
 398 418 327 340 214 340 c 3
 100 340 30 419 30 524 c 3
 30 631 110 705 214 705 c 3
196 612 m 2
 190 612 l 2
 188 612 177 609 177 603 c 2
 177 528 l 1
 194 528 l 2
 216 528 254 539 254 571 c 3
 254 602 215 612 196 612 c 2
177 510 m 1
 177 436 l 2
 177 430 198 431 200 429 c 0
 201 428 202 427 202 419 c 1
 195 420 169 421 157 421 c 3
 145 421 133 420 124 419 c 1
 124 423 125 426 126 427 c 0
 130 431 144 429 144 436 c 2
 144 619 l 2
 144 629 124 621 124 635 c 1
 133 634 147 634 159 634 c 2
 206 634 l 2
 256 634 286 602 286 580 c 3
 286 551 275 522 231 510 c 1
 288 432 300 427 319 427 c 1
 317 421 l 1
 259 421 l 2
 252 421 210 509 177 510 c 1
EndSplineSet
Validated: 1
EndChar

StartChar: currency
Encoding: 164 164 200
Width: 512
Flags: W
HStem: -10 21G<45 85 427 467> 20 51<186.835 327.369> 334 51<185.601 325.816> 410 20G<45.5556 85 426.256 466.571>
VStem: 72 57<130.28 279.237> 383 57<127.25 277.153>
LayerCount: 2
Back
Fore
SplineSet
256 71 m 3
 322 71 383 120 383 204 c 3
 383 288 316 334 256 334 c 3
 200 334 129 294 129 204 c 3
 129 126 190 71 256 71 c 3
30 394 m 1
 65 430 l 1
 144 351 l 1
 175 373 213 385 256 385 c 3
 300 385 339 373 369 352 c 1
 446 430 l 1
 482 395 l 1
 405 318 l 1
 427 288 440 250 440 204 c 3
 440 163 429 127 410 97 c 1
 482 25 l 1
 447 -10 l 1
 377 60 l 1
 346 35 305 20 256 20 c 3
 207 20 166 35 135 60 c 1
 65 -10 l 1
 30 25 l 1
 102 97 l 1
 83 127 72 164 72 204 c 3
 72 248 86 286 109 316 c 1
 30 394 l 1
EndSplineSet
Validated: 1
EndChar

StartChar: eth
Encoding: 240 240 201
Width: 466
VWidth: 0
Flags: W
HStem: -10 39<172.495 277.653> 391 39<178.004 299.48> 685 20G<98 151>
VStem: 25 89<104.861 307.809> 342 89<118.72 348.854>
LayerCount: 2
Back
Fore
SplineSet
321 393 m 1
 301 466 271 522 232 572 c 1
 197 556 162 540 122 520 c 1
 118 536 111 544 105 555 c 1
 139 567 173 584 207 601 c 1
 174 637 134 670 98 695 c 1
 136 705 l 1
 166 688 207 657 245 620 c 1
 282 637 313 657 345 675 c 1
 355 666 360 654 362 640 c 1
 337 627 308 612 273 592 c 1
 356 504 431 380 431 236 c 0
 431 67 323 -10 242 -10 c 0
 113 -10 25 69 25 208 c 0
 25 331 116 430 215 430 c 0
 273 430 304 412 321 393 c 1
332 347 m 1
 314 367 277 391 229 391 c 0
 156 391 114 291 114 192 c 0
 114 63 185 29 229 29 c 0
 297 29 342 126 342 231 c 0
 342 273 339 311 332 347 c 1
EndSplineSet
Validated: 1
EndChar

StartChar: perthousand
Encoding: 8240 8240 206
Width: 1065
VWidth: 0
Flags: HW
HStem: -10 39<512.583 607.677 842.583 937.677> 236 39<511.914 606.472 841.914 936.472> 375 39<132.583 227.677> 621 39<131.914 226.694>
VStem: 30 77<439.665 584.09> 248 77<437.904 592.912> 410 77<54.665 199.09> 628 77<52.9035 207.912> 740 77<54.665 199.09> 958 77<52.9035 207.912>
LayerCount: 2
Back
Fore
SplineSet
888 236 m 3
 831 236 817 181 817 133 c 3
 817 93 830 29 887 29 c 3
 951 29 958 78 958 133 c 3
 958 176 955 236 888 236 c 3
740 127 m 3
 740 206 816 275 890 275 c 3
 978 275 1035 204 1035 139 c 3
 1035 39 972 -10 884 -10 c 3
 776 -10 740 80 740 127 c 3
EndSplineSet
Refer: 94 37 S 1 0 0 1 0 0 2
EndChar

StartChar: uni2031
Encoding: 8241 8241 207
Width: 1405
VWidth: 0
Flags: HW
HStem: -10 39<512.583 607.677 842.583 937.677 1182.58 1277.68> 236 39<511.914 606.472 841.914 936.472 1181.91 1276.47> 375 39<132.583 227.677> 621 39<131.914 226.694>
VStem: 30 77<439.665 584.09> 248 77<437.904 592.912> 410 77<54.665 199.09> 628 77<52.9035 207.912> 740 77<54.665 199.09> 958 77<52.9035 207.912> 1080 77<54.665 199.09> 1298 77<52.9035 207.912>
LayerCount: 2
Back
Fore
SplineSet
1228 236 m 3
 1171 236 1157 181 1157 133 c 3
 1157 93 1170 29 1227 29 c 3
 1291 29 1298 78 1298 133 c 3
 1298 176 1295 236 1228 236 c 3
1080 127 m 3
 1080 206 1156 275 1230 275 c 3
 1318 275 1375 204 1375 139 c 3
 1375 39 1312 -10 1224 -10 c 3
 1116 -10 1080 80 1080 127 c 3
888 236 m 3
 831 236 817 181 817 133 c 3
 817 93 830 29 887 29 c 3
 951 29 958 78 958 133 c 3
 958 176 955 236 888 236 c 3
740 127 m 3
 740 206 816 275 890 275 c 3
 978 275 1035 204 1035 139 c 3
 1035 39 972 -10 884 -10 c 3
 776 -10 740 80 740 127 c 3
EndSplineSet
Refer: 94 37 S 1 0 0 1 0 0 2
EndChar

StartChar: endash
Encoding: 8211 8211 214
Width: 510
VWidth: 0
Flags: W
HStem: 200 55<79.7244 410.46>
LayerCount: 2
Back
Fore
SplineSet
410 205 m 1
 327 205 153 205 70 200 c 1
 76 216 77 236 80 255 c 1
 161 259 336 259 420 260 c 1
 417 241 415 219 410 205 c 1
EndSplineSet
Validated: 1
EndChar

StartChar: emdash
Encoding: 8212 8212 215
Width: 700
VWidth: 0
Flags: W
HStem: 200 55<79.7244 600.46>
LayerCount: 2
Back
Fore
SplineSet
600 205 m 1
 517 205 153 205 70 200 c 1
 76 216 77 236 80 255 c 1
 161 259 526 259 610 260 c 1
 607 241 605 219 600 205 c 1
EndSplineSet
Validated: 1
EndChar

StartChar: Euro
Encoding: 8364 8364 219
Width: 708
VWidth: 0
Flags: W
HStem: -10 42<351.384 589.604> 210 55<39.7244 570.46> 320 55<39.7244 600.46> 619 41<332.117 538.01>
VStem: 100 116<188.517 445.804> 616 16<471 498.125>
LayerCount: 2
Back
Fore
SplineSet
570 215 m 1
 487 215 113 215 30 210 c 1
 36 226 37 246 40 265 c 1
 121 269 496 269 580 270 c 1
 577 251 575 229 570 215 c 1
600 325 m 1
 517 325 113 325 30 320 c 1
 36 336 37 356 40 375 c 1
 121 379 526 379 610 380 c 1
 607 361 605 339 600 325 c 1
EndSplineSet
Refer: 34 67 N 1 0 0 1 60 0 2
EndChar
